<?xml version="1.0" encoding="UTF-8"?>
<!--Generator: Apple Native CoreSVG 175.5-->
<!DOCTYPE svg
PUBLIC "-//W3C//DTD SVG 1.1//EN"
       "http://www.w3.org/Graphics/SVG/1.1/DTD/svg11.dtd">
<svg version="1.1" xmlns="http://www.w3.org/2000/svg" xmlns:xlink="http://www.w3.org/1999/xlink" width="77.832" height="107.861">
 <g>
  <rect height="107.861" opacity="0" width="77.832" x="0" y="0"/>
  <path d="M0 70.1172C0 91.6504 14.1113 104.395 33.4961 104.395C49.0234 104.395 58.6426 97.9004 65.0391 84.8633C68.7988 77.6367 71.6797 68.9453 74.7559 58.8867C76.0254 54.7852 77.832 49.5605 77.832 47.2168C77.832 44.5801 75.9277 42.8223 73.1445 42.8223C70.0684 42.8223 68.2129 44.7754 65.9668 49.4141L59.1797 63.6719C58.4961 65.2344 57.7148 65.8203 56.9336 65.8203C55.9082 65.8203 55.2246 65.2344 55.2246 63.5254L55.2246 12.3047C55.2246 9.42383 52.8809 7.08008 50 7.08008C47.1191 7.08008 44.7754 9.42383 44.7754 12.3047L44.7754 48.9258C43.457 48.4375 41.9922 48.0469 40.4297 47.7539L40.4297 5.27344C40.4297 2.39258 38.0859 0 35.2051 0C32.3242 0 29.9316 2.39258 29.9316 5.27344L29.9316 47.2168C28.418 47.3145 26.8555 47.5586 25.3418 47.8027L25.3418 9.42383C25.3418 6.54297 22.998 4.19922 20.1172 4.19922C17.2363 4.19922 14.8926 6.54297 14.8926 9.42383L14.8926 51.123C13.2812 51.9043 11.8164 52.7344 10.498 53.6133L10.498 24.6094C10.498 21.7285 8.1543 19.3848 5.27344 19.3848C2.39258 19.3848 0 21.7285 0 24.6094Z" fill="#ffffff"/>
 </g>
</svg>
