<?xml version="1.0" encoding="UTF-8"?>
<!--Generator: Apple Native CoreSVG 175.5-->
<!DOCTYPE svg
PUBLIC "-//W3C//DTD SVG 1.1//EN"
       "http://www.w3.org/Graphics/SVG/1.1/DTD/svg11.dtd">
<svg version="1.1" xmlns="http://www.w3.org/2000/svg" xmlns:xlink="http://www.w3.org/1999/xlink" width="67.077" height="120.459">
 <g>
  <rect height="120.459" opacity="0" width="67.077" x="0" y="0"/>
  <path d="M16.7352 113.232C20.8367 113.232 23.3758 110.938 23.327 106.934L22.3504 52.0996C22.3504 50.3906 23.0828 49.1211 24.5965 48.4375C31.0418 45.6055 33.825 42.627 33.4832 34.082L32.116 4.10156C32.0184 1.95312 30.7488 0.732422 28.7469 0.732422C26.8426 0.732422 25.6707 2.00195 25.6707 4.19922L26.0125 33.3496C26.0125 35.0586 24.9383 36.1328 23.327 36.1328C21.6668 36.1328 20.4949 35.1074 20.4949 33.4961L20.0066 3.32031C19.9578 1.2207 18.7371 0 16.7352 0C14.7332 0 13.5613 1.2207 13.5125 3.32031L13.0242 33.4961C13.0242 35.1074 11.8524 36.1328 10.1922 36.1328C8.58087 36.1328 7.45782 35.0586 7.45782 33.3496L7.79962 4.19922C7.79962 2.00195 6.67657 0.732422 4.72344 0.732422C2.72149 0.732422 1.45196 1.95312 1.3543 4.10156L0.0359447 34.082C-0.35468 42.627 2.42852 45.6055 8.87384 48.4375C10.3875 49.1211 11.1199 50.3906 11.1199 52.0996L10.1922 106.934C10.1434 110.938 12.6336 113.232 16.7352 113.232ZM54.9188 70.6543L53.8934 106.689C53.7469 110.938 56.3348 113.232 60.3875 113.232C64.5379 113.232 67.077 111.133 67.077 107.227L67.077 3.66211C67.077 1.17188 65.368 0 63.6102 0C61.7547 0 60.534 0.976562 58.9715 3.27148C51.1102 14.3066 45.9344 34.9609 45.9344 54.4922L45.9344 56.8848C45.9344 60.2539 47.1551 62.7441 49.5965 64.3555L52.4774 66.3086C54.2352 67.5293 55.0164 68.8965 54.9188 70.6543Z" fill="#000000"/>
 </g>
</svg>
