<?xml version="1.0" encoding="UTF-8"?>
<!--Generator: Apple Native CoreSVG 175.5-->
<!DOCTYPE svg
PUBLIC "-//W3C//DTD SVG 1.1//EN"
       "http://www.w3.org/Graphics/SVG/1.1/DTD/svg11.dtd">
<svg version="1.1" xmlns="http://www.w3.org/2000/svg" xmlns:xlink="http://www.w3.org/1999/xlink" width="64.966" height="65.0758">
 <g>
  <rect height="65.0758" opacity="0" width="64.966" x="0" y="0"/>
  <path d="M1.26349 63.8123C2.92365 65.5213 5.80451 65.4725 7.46467 63.8123L32.4647 38.7635L57.5135 63.8123C59.1737 65.4725 62.0057 65.5213 63.6658 63.8123C65.4237 62.1033 65.3748 59.2713 63.6658 57.6112L38.6658 32.5623L63.6658 7.56232C65.3748 5.90217 65.4237 3.02131 63.6658 1.36115C62.0057-0.347834 59.1737-0.299006 57.5135 1.36115L32.4647 26.41L7.46467 1.36115C5.80451-0.299006 2.92365-0.347834 1.26349 1.36115C-0.44549 3.02131-0.396662 5.90217 1.26349 7.56232L26.3123 32.5623L1.26349 57.6112C-0.396662 59.2713-0.44549 62.1033 1.26349 63.8123Z" fill="#000000"/>
 </g>
</svg>
