<?xml version="1.0" encoding="UTF-8"?>
<!--Generator: Apple Native CoreSVG 175.5-->
<!DOCTYPE svg
PUBLIC "-//W3C//DTD SVG 1.1//EN"
       "http://www.w3.org/Graphics/SVG/1.1/DTD/svg11.dtd">
<svg version="1.1" xmlns="http://www.w3.org/2000/svg" xmlns:xlink="http://www.w3.org/1999/xlink" width="141.846" height="107.471">
 <g>
  <rect height="107.471" opacity="0" width="141.846" x="0" y="0"/>
  <path d="M43.2617 68.5547L43.2617 72.4121C43.2617 79.3945 45.6543 81.9824 50.0977 84.5215L88.5254 106.299C91.2598 107.861 93.8477 107.861 96.6309 106.299L135.01 84.5215C139.502 81.9824 141.846 79.3945 141.846 72.4121L141.846 33.7402C141.846 28.6621 139.99 25.4883 135.889 23.1445L101.318 3.51562C95.4102 0.0976562 89.6973 0.0976562 83.7891 3.51562L49.2676 23.1445C45.1172 25.4883 43.2617 28.6621 43.2617 33.7402L43.2617 50L50.6836 50L50.6836 35.3027L88.7207 57.0312L88.7207 97.5586L54.4922 78.0762C51.6602 76.5137 50.6836 74.8535 50.6836 72.168L50.6836 68.5547ZM130.664 78.0762L96.3867 97.5586L96.3867 57.0312L134.424 35.3027L134.424 72.168C134.424 74.8535 133.447 76.5137 130.664 78.0762ZM92.5781 50.1953L54.8828 28.8574L69.9707 20.2148L107.666 41.6504ZM115.527 37.207L77.6855 15.8203L87.0605 10.498C90.8203 8.34961 94.2871 8.30078 98.0957 10.498L130.273 28.8574ZM61.7676 59.2773C61.7676 56.7383 59.9609 54.9316 57.4707 54.9316L24.6582 54.9316L9.61914 55.4199L9.61914 58.1543L22.9492 46.0449L29.6875 40.0879C30.7617 39.1602 31.1035 37.9395 31.1035 36.7676C31.1035 34.3262 29.248 32.5684 26.8066 32.5684C25.6836 32.5684 24.6582 32.959 23.6816 33.8867L1.51367 56.0059C0.537109 56.9336 0 58.0566 0 59.2773C0 60.498 0.537109 61.6211 1.51367 62.5488L23.5352 84.5215C24.6094 85.5957 25.6836 85.9863 26.8066 85.9863C29.248 85.9863 31.1035 84.2285 31.1035 81.7871C31.1035 80.6152 30.8105 79.3945 29.6875 78.4668L22.9492 72.5098L9.61914 60.4004L9.61914 63.1348L24.6582 63.623L57.4707 63.623C59.9609 63.623 61.7676 61.8164 61.7676 59.2773Z" fill="#ffffff"/>
 </g>
</svg>
