<?xml version="1.0" encoding="UTF-8"?>
<!--Generator: Apple Native CoreSVG 175.5-->
<!DOCTYPE svg
PUBLIC "-//W3C//DTD SVG 1.1//EN"
       "http://www.w3.org/Graphics/SVG/1.1/DTD/svg11.dtd">
<svg version="1.1" xmlns="http://www.w3.org/2000/svg" xmlns:xlink="http://www.w3.org/1999/xlink" width="99.6094" height="99.6582">
 <g>
  <rect height="99.6582" opacity="0" width="99.6094" x="0" y="0"/>
  <path d="M49.8047 99.6094C77.0508 99.6094 99.6094 77.002 99.6094 49.8047C99.6094 22.5586 77.002 0 49.7559 0C22.5586 0 0 22.5586 0 49.8047C0 77.002 22.6074 99.6094 49.8047 99.6094ZM49.8047 91.3086C26.7578 91.3086 8.34961 72.8516 8.34961 49.8047C8.34961 26.7578 26.709 8.30078 49.7559 8.30078C72.8027 8.30078 91.3086 26.7578 91.3086 49.8047C91.3086 72.8516 72.8516 91.3086 49.8047 91.3086ZM27.002 56.8848C30.9082 56.8848 34.082 53.7109 34.082 49.7559C34.082 45.8496 30.8594 42.6758 27.002 42.6758C23.0469 42.6758 19.873 45.8496 19.873 49.7559C19.873 53.7109 23.0469 56.8848 27.002 56.8848ZM49.7559 56.8848C53.6621 56.8848 56.8848 53.7109 56.8848 49.7559C56.8848 45.8496 53.6621 42.6758 49.7559 42.6758C45.8496 42.6758 42.627 45.8496 42.627 49.7559C42.627 53.7109 45.8496 56.8848 49.7559 56.8848ZM72.5586 56.8848C76.4648 56.8848 79.6387 53.7109 79.6387 49.7559C79.6387 45.8496 76.4648 42.6758 72.5586 42.6758C68.6035 42.6758 65.4297 45.8496 65.4297 49.7559C65.4297 53.7109 68.6035 56.8848 72.5586 56.8848Z" fill="#ffffff"/>
 </g>
</svg>
