<?xml version="1.0" encoding="UTF-8"?>
<!--Generator: Apple Native CoreSVG 175.5-->
<!DOCTYPE svg
PUBLIC "-//W3C//DTD SVG 1.1//EN"
       "http://www.w3.org/Graphics/SVG/1.1/DTD/svg11.dtd">
<svg version="1.1" xmlns="http://www.w3.org/2000/svg" xmlns:xlink="http://www.w3.org/1999/xlink" width="57.1777" height="54.5186">
 <g>
  <rect height="54.5186" opacity="0" width="57.1777" x="0" y="0"/>
  <path d="M0 24.1221C0 26.417 1.41602 27.8575 3.73535 27.8575L53.418 27.8575C55.7373 27.8575 57.1777 26.417 57.1777 24.1221L57.1777 20.5821C57.1777 18.2871 55.7373 16.8223 53.418 16.8223L3.73535 16.8223C1.41602 16.8223 0 18.2871 0 20.5821ZM4.6875 20.7041L52.4658 20.7041C53.0029 20.7041 53.3203 21.0215 53.3203 21.5586L53.3203 23.1211C53.3203 23.6582 53.0029 24 52.4658 24L4.6875 24C4.15039 24 3.85742 23.6582 3.85742 23.1211L3.85742 21.5586C3.85742 21.0215 4.15039 20.7041 4.6875 20.7041ZM15.5273 52.3204L41.6504 52.3204C47.29 52.3204 49.0234 49.0245 49.7559 45.4844L53.6377 26.8809L49.8047 26.2217L46.167 43.9952C45.5078 47.1202 44.5312 48.4141 40.9668 48.4141L16.2109 48.4141C12.6465 48.4141 11.6699 47.1202 11.0107 43.9952L7.37305 26.2217L3.54004 26.8809L7.42188 45.4844C8.1543 49.0245 9.8877 52.3204 15.5273 52.3204ZM18.1885 45.753C19.0918 45.6065 19.5801 44.9473 19.458 44.1661L17.4316 31.3975C17.2852 30.5918 16.6016 30.1524 15.7227 30.2745C14.8193 30.4454 14.3066 31.0801 14.4531 31.8614L16.4795 44.6299C16.626 45.4356 17.2852 45.8995 18.1885 45.753ZM25.1953 45.6065C26.0742 45.5577 26.6602 44.9717 26.6113 44.1661L25.8301 31.5196C25.7568 30.6895 25.1465 30.128 24.2432 30.2012C23.3643 30.2745 22.7783 30.8604 22.8271 31.6905L23.6084 44.3125C23.6572 45.1426 24.3164 45.6797 25.1953 45.6065ZM32.0068 45.6065C32.8857 45.6797 33.5449 45.1426 33.5938 44.3125L34.375 31.6905C34.4238 30.8604 33.8379 30.2745 32.959 30.2012C32.0557 30.128 31.4453 30.6895 31.3721 31.5196L30.5908 44.1661C30.542 44.9717 31.1279 45.5577 32.0068 45.6065ZM38.9893 45.753C39.8682 45.8995 40.5518 45.4356 40.6982 44.6299L42.749 31.8614C42.8711 31.0801 42.3584 30.4454 41.4551 30.2745C40.5762 30.1524 39.8926 30.5918 39.7461 31.3975L37.7197 44.1661C37.5977 44.9473 38.0859 45.6065 38.9893 45.753ZM7.88574 17.8233L12.793 17.8233L21.3379 2.95512C21.9971 1.78324 21.46 0.75785 20.5566 0.269569C19.6777-0.194298 18.5059-0.121056 17.8467 0.977577ZM44.3848 17.8233L49.292 17.8233L39.3311 0.977577C38.6963-0.0966419 37.5244-0.169884 36.6211 0.269569C35.7422 0.75785 35.1807 1.78324 35.8398 2.95512Z" fill="#ffffff"/>
 </g>
</svg>
