<?xml version="1.0" encoding="UTF-8"?>
<!--Generator: Apple Native CoreSVG 175.5-->
<!DOCTYPE svg
PUBLIC "-//W3C//DTD SVG 1.1//EN"
       "http://www.w3.org/Graphics/SVG/1.1/DTD/svg11.dtd">
<svg version="1.1" xmlns="http://www.w3.org/2000/svg" xmlns:xlink="http://www.w3.org/1999/xlink" width="112.442" height="104.59">
 <g>
  <rect height="104.59" opacity="0" width="112.442" x="0" y="0"/>
  <path d="M21.0035 20.4346C12.8004 24.6338 5.6715 30.1025 0.495716 36.3037C-0.187878 37.1338-0.187878 38.208 0.6422 39.0869L7.42931 45.8252C8.35704 46.7529 9.72423 46.7529 10.652 45.7764C16.8043 39.2822 23.7867 34.3506 31.7457 31.1768ZM54.109 26.5869C54.8414 26.4404 55.6227 26.3916 56.3551 26.3916C74.6168 26.6846 89.8512 33.667 101.863 45.9229C102.791 46.8018 104.109 46.7529 105.037 45.8252L111.775 39.0869C112.654 38.208 112.605 37.1338 111.97 36.3037C100.203 22.3389 78.8649 11.7432 56.2086 11.7432C51.277 11.7432 46.3942 12.2314 40.8766 13.3545ZM42.7809 42.1143C33.2594 44.7021 25.1539 49.8291 19.9293 56.0303C19.2457 56.9092 19.2945 57.9346 20.1246 58.7646L27.693 66.2842C28.7184 67.2607 30.0367 67.1631 31.0133 66.0889C36.8238 59.6436 46.0524 55.1514 55.6227 55.0049ZM89.3141 61.792L92.3414 58.7646C93.2203 57.8857 93.2203 56.9092 92.5367 56.0303C87.6051 49.9268 79.0113 44.5068 69.734 42.2119ZM56.2574 68.7744C49.275 68.7744 43.1715 72.4854 40.0465 76.7334C39.5582 77.5146 39.7535 78.3936 40.486 79.126L52.3512 90.5518C54.2555 92.4072 55.1832 92.8955 56.2574 92.8955C57.3317 92.8955 58.2594 92.3584 60.2125 90.5518L72.0289 79.126C72.8102 78.3936 73.0055 77.3193 72.3219 76.4404C69.0992 72.3389 63.1422 68.7744 56.2574 68.7744ZM97.3707 88.5498C98.8356 90.0146 101.277 90.0146 102.693 88.5498C104.109 87.0361 104.158 84.6924 102.693 83.2275L20.6129 1.09863C19.1481-0.366211 16.7067-0.366211 15.2418 1.09863C13.777 2.51465 13.777 5.05371 15.2418 6.4209Z" fill="#ffffff"/>
 </g>
</svg>
