<?xml version="1.0" encoding="UTF-8"?>
<!--Generator: Apple Native CoreSVG 175.5-->
<!DOCTYPE svg
PUBLIC "-//W3C//DTD SVG 1.1//EN"
       "http://www.w3.org/Graphics/SVG/1.1/DTD/svg11.dtd">
<svg version="1.1" xmlns="http://www.w3.org/2000/svg" xmlns:xlink="http://www.w3.org/1999/xlink" width="78.6133" height="102.002">
 <g>
  <rect height="102.002" opacity="0" width="78.6133" x="0" y="0"/>
  <path d="M56.9824 23.3398C49.707 23.3398 43.75 27.7832 39.9414 27.7832C35.8887 27.7832 30.6152 23.6328 24.2676 23.6328C12.207 23.6328 0 33.5938 0 52.3438C0 64.0625 4.49219 76.416 10.1074 84.375C14.8926 91.1133 19.0918 96.6309 25.1465 96.6309C31.1035 96.6309 33.7402 92.6758 41.1621 92.6758C48.6816 92.6758 50.3906 96.5332 56.9824 96.5332C63.5254 96.5332 67.8711 90.5273 72.0215 84.6191C76.6113 77.832 78.5645 71.2402 78.6133 70.8984C78.2227 70.8008 65.7227 65.6738 65.7227 51.3672C65.7227 38.9648 75.5371 33.3984 76.123 32.959C69.6289 23.6328 59.7168 23.3398 56.9824 23.3398ZM53.5645 15.4297C56.543 11.8164 58.6426 6.88477 58.6426 1.9043C58.6426 1.2207 58.5938 0.537109 58.4961 0C53.6133 0.195312 47.7539 3.22266 44.2871 7.32422C41.5039 10.4492 38.9648 15.4297 38.9648 20.4102C38.9648 21.1914 39.1113 21.9238 39.1602 22.168C39.4531 22.2168 39.9414 22.3145 40.4785 22.3145C44.8242 22.3145 50.293 19.3848 53.5645 15.4297Z" fill="#000000"/>
 </g>
</svg>
