<?xml version="1.0" encoding="UTF-8"?>
<!--Generator: Apple Native CoreSVG 175.5-->
<!DOCTYPE svg
PUBLIC "-//W3C//DTD SVG 1.1//EN"
       "http://www.w3.org/Graphics/SVG/1.1/DTD/svg11.dtd">
<svg version="1.1" xmlns="http://www.w3.org/2000/svg" xmlns:xlink="http://www.w3.org/1999/xlink" width="99.6094" height="99.6582">
 <g>
  <rect height="99.6582" opacity="0" width="99.6094" x="0" y="0"/>
  <path d="M49.8047 99.6582C77.0508 99.6582 99.6094 77.0996 99.6094 49.8535C99.6094 22.6562 77.002 0.0488281 49.7559 0.0488281C22.5586 0.0488281 0 22.6562 0 49.8535C0 77.0996 22.6074 99.6582 49.8047 99.6582Z" fill="#e2eefc"/>
  <path d="M38.7695 81.6406C33.8379 81.6406 30.5664 78.4668 30.5664 73.6816L30.5664 26.0254C30.5664 21.1914 33.8379 18.0664 38.7695 18.0664L60.791 18.0664C65.7227 18.0664 69.043 21.1914 69.043 26.0254L69.043 73.6816C69.043 78.4668 65.7227 81.6406 60.791 81.6406ZM39.4043 76.709L60.2051 76.709C62.7441 76.709 64.1602 75.3418 64.1602 72.9492L64.1602 26.7578C64.1602 24.3652 62.7441 22.998 60.2051 22.998L56.5918 22.998C56.1523 22.998 55.957 23.1934 55.957 23.6328L55.957 24.3164C55.957 25.6348 55.0781 26.4648 53.8574 26.4648L45.7031 26.4648C44.4824 26.4648 43.6523 25.6348 43.6523 24.3164L43.6523 23.6328C43.6523 23.1934 43.457 22.998 43.0176 22.998L39.4043 22.998C36.8164 22.998 35.4492 24.3652 35.4492 26.7578L35.4492 72.9492C35.4492 75.3418 36.8164 76.709 39.4043 76.709ZM43.5059 74.5117C42.6758 74.5117 42.041 73.9258 42.041 73.0957C42.041 72.168 42.6758 71.582 43.5059 71.582L56.1035 71.582C56.9336 71.582 57.5684 72.168 57.5684 73.0957C57.5684 73.9258 56.9336 74.5117 56.1035 74.5117Z" fill="#086fff"/>
 </g>
</svg>
