<?xml version="1.0" encoding="UTF-8"?>
<!--Generator: Apple Native CoreSVG 175.5-->
<!DOCTYPE svg
PUBLIC "-//W3C//DTD SVG 1.1//EN"
       "http://www.w3.org/Graphics/SVG/1.1/DTD/svg11.dtd">
<svg version="1.1" xmlns="http://www.w3.org/2000/svg" xmlns:xlink="http://www.w3.org/1999/xlink" width="123.73" height="93.1152">
 <g>
  <rect height="93.1152" opacity="0" width="123.73" x="0" y="0"/>
  <path d="M15.332 88.2812L55.0293 88.2812L55.0293 80.4199L15.4785 80.4199C10.5957 80.4199 7.86133 77.832 7.86133 72.7539L7.86133 20.459C7.86133 15.3809 10.5957 12.7441 15.4785 12.7441L99.3164 12.7441C104.15 12.7441 106.885 15.3809 106.885 20.459L106.885 51.8066C108.203 51.5625 109.521 51.416 110.889 51.416C112.207 51.416 113.525 51.5137 114.746 51.7578L114.746 20.0195C114.746 9.96094 109.668 4.88281 99.4141 4.88281L15.332 4.88281C5.17578 4.88281 0 9.96094 0 20.0195L0 73.1934C0 83.252 5.17578 88.2812 15.332 88.2812ZM4.00391 35.4004L110.84 35.4004L110.84 24.3164L4.00391 24.3164ZM64.7949 93.0664C66.748 93.0664 68.0176 91.7969 68.0176 89.8926L68.0176 61.6211C68.0176 59.6191 66.6504 58.252 64.5508 58.252C63.4766 58.252 62.6953 58.5449 61.4746 59.375L54.1016 64.1602C52.9297 64.8926 52.3926 65.8203 52.3926 66.9434C52.3926 68.5059 53.6133 69.6289 55.2246 69.6289C55.8594 69.6289 56.4453 69.4336 57.0801 68.9941L61.4258 66.2598L61.7188 66.2598L61.7188 89.8926C61.7188 91.7969 62.9883 93.0664 64.7949 93.0664ZM75.4395 92.627L93.7988 92.627C95.5078 92.627 96.7773 91.4062 96.7773 89.7461C96.7773 87.9883 95.5078 86.7188 93.7988 86.7188L82.1777 86.7188L82.1777 86.4746L88.5742 80.127C93.9941 74.8047 95.7031 71.875 95.7031 68.1641C95.7031 62.4023 90.7227 58.0566 84.0332 58.0566C78.8086 58.0566 74.3652 61.0352 72.9004 65.332C72.6562 66.0645 72.4609 66.7969 72.4609 67.627C72.4609 69.3848 73.6816 70.5566 75.3418 70.5566C76.8555 70.5566 77.7832 69.8242 78.2227 68.1641C78.3203 67.7734 78.418 67.4316 78.5645 67.0898C79.541 65.0391 81.543 63.8672 84.0332 63.8672C86.9629 63.8672 89.3555 65.9668 89.3555 68.4082C89.3555 70.6055 88.3789 72.1191 84.2285 76.2207L73.877 86.5234C72.7539 87.5977 72.3145 88.5254 72.3145 89.6484C72.3145 91.4062 73.584 92.627 75.4395 92.627ZM110.938 93.1152C118.311 93.1152 123.73 88.6719 123.73 82.6172C123.73 77.9785 120.508 74.4141 116.064 73.9746L116.064 75.6836C120.02 74.5117 122.363 71.4355 122.363 67.4805C122.363 62.0117 117.529 58.0566 110.889 58.0566C105.859 58.0566 101.709 60.3516 100 64.0137C99.5605 64.9414 99.3164 65.9668 99.3164 66.9434C99.3164 68.6523 100.488 69.8242 102.197 69.8242C103.711 69.8242 104.59 69.1406 105.029 67.6758C105.859 65.2344 107.812 63.8672 110.742 63.8672C114.062 63.8672 116.064 65.4785 116.064 68.0176C116.064 70.6543 113.916 72.3145 110.547 72.3145L108.105 72.3145C106.445 72.3145 105.273 73.5352 105.273 75.1465C105.273 76.7578 106.445 77.9297 108.105 77.9297L110.596 77.9297C114.893 77.9297 117.236 79.5898 117.236 82.6172C117.236 85.4004 114.746 87.2559 110.986 87.2559C107.617 87.2559 105.273 85.8398 104.492 83.4473C104.053 81.9824 103.076 81.2988 101.611 81.2988C99.8535 81.2988 98.584 82.5195 98.584 84.2773C98.584 85.2051 98.8281 86.2305 99.3164 87.1094C101.367 90.918 105.518 93.1152 110.938 93.1152Z" fill="#000000"/>
 </g>
</svg>
