<?xml version="1.0" encoding="UTF-8"?>
<!--Generator: Apple Native CoreSVG 175.5-->
<!DOCTYPE svg
PUBLIC "-//W3C//DTD SVG 1.1//EN"
       "http://www.w3.org/Graphics/SVG/1.1/DTD/svg11.dtd">
<svg version="1.1" xmlns="http://www.w3.org/2000/svg" xmlns:xlink="http://www.w3.org/1999/xlink" width="82.1777" height="89.4043">
 <g>
  <rect height="89.4043" opacity="0" width="82.1777" x="0" y="0"/>
  <path d="M8.34961 89.4043L73.8281 89.4043C79.0527 89.4043 82.1777 86.9629 82.1777 82.9102C82.1777 70.3125 66.4062 52.9297 41.0645 52.9297C15.7715 52.9297 0 70.3125 0 82.9102C0 86.9629 3.125 89.4043 8.34961 89.4043ZM41.1133 44.1895C51.5625 44.1895 60.6445 34.8145 60.6445 22.6074C60.6445 10.5469 51.5625 1.61133 41.1133 1.61133C30.6641 1.61133 21.582 10.7422 21.582 22.7051C21.582 34.8145 30.6152 44.1895 41.1133 44.1895Z" fill="#000000"/>
 </g>
</svg>
