<?xml version="1.0" encoding="UTF-8"?>
<!--Generator: Apple Native CoreSVG 175.5-->
<!DOCTYPE svg
PUBLIC "-//W3C//DTD SVG 1.1//EN"
       "http://www.w3.org/Graphics/SVG/1.1/DTD/svg11.dtd">
<svg version="1.1" xmlns="http://www.w3.org/2000/svg" xmlns:xlink="http://www.w3.org/1999/xlink" width="99.6094" height="99.6582">
 <g>
  <rect height="99.6582" opacity="0" width="99.6094" x="0" y="0"/>
  <path d="M49.8047 99.6094C77.0508 99.6094 99.6094 77.002 99.6094 49.8047C99.6094 22.5586 77.002 0 49.7559 0C22.5586 0 0 22.5586 0 49.8047C0 77.002 22.6074 99.6094 49.8047 99.6094ZM25.9766 49.8535C25.9766 47.3145 27.7344 45.5566 30.2734 45.5566L45.5566 45.5566L45.5566 30.2734C45.5566 27.7344 47.2656 25.9277 49.7559 25.9277C52.2949 25.9277 54.0527 27.7344 54.0527 30.2734L54.0527 45.5566L69.3848 45.5566C71.875 45.5566 73.6816 47.3145 73.6816 49.8535C73.6816 52.3438 71.875 54.0039 69.3848 54.0039L54.0527 54.0039L54.0527 69.3359C54.0527 71.875 52.2949 73.6328 49.7559 73.6328C47.2656 73.6328 45.5566 71.8262 45.5566 69.3359L45.5566 54.0039L30.2734 54.0039C27.7344 54.0039 25.9766 52.3438 25.9766 49.8535Z" fill="#ffffff"/>
 </g>
</svg>
