<?xml version="1.0" encoding="UTF-8"?>
<!--Generator: Apple Native CoreSVG 175.5-->
<!DOCTYPE svg
PUBLIC "-//W3C//DTD SVG 1.1//EN"
       "http://www.w3.org/Graphics/SVG/1.1/DTD/svg11.dtd">
<svg version="1.1" xmlns="http://www.w3.org/2000/svg" xmlns:xlink="http://www.w3.org/1999/xlink" width="118.115" height="100.635">
 <g>
  <rect height="100.635" opacity="0" width="118.115" x="0" y="0"/>
  <path d="M68.3105 100.098C95.5078 100.098 118.115 77.5391 118.115 50.293C118.115 23.0957 95.459 0.488281 68.2617 0.488281C42.8711 0.488281 21.6309 20.1172 18.8477 44.873C20.752 44.4824 22.7539 44.2871 24.8047 44.2871C39.6973 44.2871 52.2949 54.8828 55.4199 68.457C59.2773 67.4805 63.5742 66.9434 68.2617 66.9434C83.0078 66.9434 94.3359 72.4121 99.1211 78.125C91.7969 86.4746 80.4199 91.8945 68.2617 91.8945C63.2812 91.8945 57.8613 90.918 53.2227 89.0137C52.5879 90.8203 50.8789 93.5547 48.7793 95.9961C54.834 98.6816 61.377 100.098 68.3105 100.098ZM68.2617 58.6426C58.8379 58.5449 51.5625 50.7324 51.5137 40.2344C51.416 30.3711 58.8867 22.168 68.2617 22.168C77.5879 22.168 85.0098 30.3711 85.0098 40.2344C85.0098 50.7324 77.6367 58.7402 68.2617 58.6426ZM24.8047 100.635C38.2324 100.635 49.6094 89.4043 49.6094 75.8301C49.6094 62.207 38.4277 51.0254 24.8047 51.0254C11.2305 51.0254 0 62.2559 0 75.8301C0 89.502 11.2305 100.635 24.8047 100.635ZM24.8047 91.3574C22.998 91.3574 21.8262 90.1855 21.8262 88.3789L21.8262 78.8086L12.2559 78.8086C10.498 78.8086 9.27734 77.6367 9.27734 75.8301C9.27734 74.0234 10.498 72.8516 12.2559 72.8516L21.8262 72.8516L21.8262 63.2812C21.8262 61.5234 22.998 60.3027 24.8047 60.3027C26.6113 60.3027 27.7832 61.5234 27.7832 63.2812L27.7832 72.8516L37.3535 72.8516C39.1113 72.8516 40.332 74.0234 40.332 75.8301C40.332 77.6367 39.1113 78.8086 37.3535 78.8086L27.7832 78.8086L27.7832 88.3789C27.7832 90.1855 26.6113 91.3574 24.8047 91.3574Z" fill="#ffffff"/>
 </g>
</svg>
