<?xml version="1.0" encoding="UTF-8"?>
<!--Generator: Apple Native CoreSVG 175.5-->
<!DOCTYPE svg
PUBLIC "-//W3C//DTD SVG 1.1//EN"
       "http://www.w3.org/Graphics/SVG/1.1/DTD/svg11.dtd">
<svg version="1.1" xmlns="http://www.w3.org/2000/svg" xmlns:xlink="http://www.w3.org/1999/xlink" width="112.435" height="81.2012">
 <g>
  <rect height="81.2012" opacity="0" width="112.435" x="0" y="0"/>
  <path d="M56.2086 81.2012C57.2828 81.2012 58.2106 80.7129 60.1149 78.8574L72.0289 67.4316C72.7613 66.6992 72.9567 65.625 72.2731 64.7461C69.0992 60.6445 63.0934 57.0801 56.2086 57.0801C49.1285 57.0801 43.1227 60.791 39.9488 65.0391C39.4606 65.8203 39.6559 66.6992 40.4371 67.4316L52.3024 78.8574C54.2067 80.6641 55.1344 81.2012 56.2086 81.2012ZM27.6442 54.6387C28.7184 55.6641 30.0367 55.5176 31.0133 54.4434C36.8727 47.9492 46.443 43.2129 56.2086 43.2617C66.0719 43.2129 75.6422 48.0957 81.5992 54.5898C82.4781 55.6152 83.6988 55.5664 84.7731 54.5898L92.3414 47.0703C93.1227 46.2891 93.2203 45.2148 92.4879 44.3359C85.1149 35.3027 71.443 28.5156 56.2086 28.5156C40.9742 28.5156 27.3024 35.3027 19.9293 44.3359C19.1969 45.2148 19.2457 46.1914 20.0758 47.0703ZM7.38048 34.2285C8.35704 35.1562 9.72423 35.1562 10.652 34.1797C22.6637 21.4355 38.484 14.6973 56.2086 14.6973C74.0309 14.6973 89.9488 21.4844 101.863 34.2285C102.742 35.1074 104.06 35.0586 105.037 34.1309L111.775 27.3926C112.654 26.5137 112.605 25.4395 111.921 24.6094C100.447 10.4492 78.8649 0.0488281 56.2086 0.0488281C33.6012 0.0488281 11.9215 10.4492 0.495716 24.6094C-0.187878 25.4395-0.187878 26.5137 0.6422 27.3926Z" fill="#000000"/>
 </g>
</svg>
