<?xml version="1.0" encoding="UTF-8"?>
<!--Generator: Apple Native CoreSVG 175.5-->
<!DOCTYPE svg
PUBLIC "-//W3C//DTD SVG 1.1//EN"
       "http://www.w3.org/Graphics/SVG/1.1/DTD/svg11.dtd">
<svg version="1.1" xmlns="http://www.w3.org/2000/svg" xmlns:xlink="http://www.w3.org/1999/xlink" width="140.967" height="88.5254">
 <g>
  <rect height="88.5254" opacity="0" width="140.967" x="0" y="0"/>
  <path d="M30.957 34.4727C30.957 32.0312 32.4707 30.5176 35.0098 30.5176L43.7988 30.5176L43.7988 21.9727C43.7988 19.4824 45.2148 17.9688 47.6562 17.9688C50.0488 17.9688 51.5137 19.4824 51.5137 21.9727L51.5137 30.5176L59.7656 30.5176C62.5 30.5176 64.1113 32.0312 64.1113 34.4727C64.1113 37.0117 62.5 38.5742 59.7656 38.5742L51.5137 38.5742L51.5137 47.1191C51.5137 49.6094 50.0488 51.1719 47.6562 51.1719C45.2148 51.1719 43.7988 49.6094 43.7988 47.1191L43.7988 38.5742L35.0098 38.5742C32.4707 38.5742 30.957 37.0117 30.957 34.4727ZM78.9551 41.3086C78.9551 37.3047 82.0801 34.2285 85.9863 34.2285C89.9414 34.2285 93.0176 37.3047 93.0176 41.3086C93.0176 45.2637 89.9414 48.3398 85.9863 48.3398C82.0801 48.3398 78.9551 45.2637 78.9551 41.3086ZM93.3594 26.8555C93.3594 22.8516 96.4355 19.7754 100.342 19.7754C104.346 19.7754 107.373 22.8516 107.373 26.8555C107.373 30.8105 104.346 33.8379 100.342 33.8379C96.4355 33.8379 93.3594 30.8105 93.3594 26.8555ZM18.6035 88.5254C25.293 88.5254 29.8828 86.084 33.9844 81.0059L42.8223 70.3125C44.0918 68.7988 45.5566 68.0664 47.0215 68.0664L93.9453 68.0664C95.4102 68.0664 96.875 68.7988 98.1445 70.3125L106.982 81.0059C111.084 86.084 115.674 88.5254 122.363 88.5254C133.545 88.5254 140.967 81.1035 140.967 69.6777C140.967 64.7949 139.844 59.1797 137.939 52.8809C134.961 42.8711 129.736 29.248 124.756 18.7012C120.557 9.91211 118.408 5.9082 108.057 3.56445C98.877 1.46484 86.1328 0.0488281 70.5078 0.0488281C54.8828 0.0488281 42.0898 1.46484 32.9102 3.56445C22.5586 5.9082 20.4102 9.91211 16.2109 18.7012C11.2305 29.248 6.00586 42.8711 3.02734 52.8809C1.12305 59.1797 0 64.7949 0 69.6777C0 81.1035 7.42188 88.5254 18.6035 88.5254Z" fill="#000000"/>
 </g>
</svg>
