<?xml version="1.0" encoding="UTF-8"?>
<!--Generator: Apple Native CoreSVG 175.5-->
<!DOCTYPE svg
PUBLIC "-//W3C//DTD SVG 1.1//EN"
       "http://www.w3.org/Graphics/SVG/1.1/DTD/svg11.dtd">
<svg version="1.1" xmlns="http://www.w3.org/2000/svg" xmlns:xlink="http://www.w3.org/1999/xlink" width="86.6699" height="109.619">
 <g>
  <rect height="109.619" opacity="0" width="86.6699" x="0" y="0"/>
  <path d="M0 84.668C0 94.7754 5.12695 99.8047 15.332 99.8047L72.8027 99.8047C81.543 99.8047 86.6699 94.7266 86.6699 84.668L86.6699 34.1309C86.6699 24.0723 81.4941 18.9941 71.3379 18.9941L63.5254 18.9941C63.2812 8.74023 54.3457 0 43.3105 0C32.2754 0 23.3887 8.74023 23.0957 18.9941L15.332 18.9941C5.12695 18.9941 0 24.0234 0 34.1309ZM7.86133 84.2773L7.86133 34.5215C7.86133 29.4434 10.5469 26.8555 15.4297 26.8555L71.1914 26.8555C76.0254 26.8555 78.8086 29.4434 78.8086 34.5215L78.8086 84.2773C78.8086 89.3555 76.0254 91.9434 72.6562 91.9434L15.4297 91.9434C10.5469 91.9434 7.86133 89.3555 7.86133 84.2773ZM30.957 18.9941C31.2012 12.6465 36.4258 7.42188 43.3105 7.42188C50.1953 7.42188 55.4688 12.6465 55.6641 18.9941Z" fill="#000000"/>
 </g>
</svg>
