<?xml version="1.0" encoding="UTF-8"?>
<!--Generator: Apple Native CoreSVG 175.5-->
<!DOCTYPE svg
PUBLIC "-//W3C//DTD SVG 1.1//EN"
       "http://www.w3.org/Graphics/SVG/1.1/DTD/svg11.dtd">
<svg version="1.1" xmlns="http://www.w3.org/2000/svg" xmlns:xlink="http://www.w3.org/1999/xlink" width="49.5361" height="53.6865">
 <g>
  <rect height="53.6865" opacity="0" width="49.5361" x="0" y="0"/>
  <path d="M26.4404 53.6865C26.6113 53.6377 26.7578 53.5645 26.9287 53.4668L46.0449 42.5781C48.3154 41.2842 49.5361 39.9658 49.5361 36.4258L49.5361 17.4072C49.5361 16.6748 49.4873 16.0889 49.3408 15.5518L26.4404 28.6377ZM23.0957 53.6865L23.0957 28.6377L0.195312 15.5518C0.0488281 16.0889 0 16.6748 0 17.4072L0 36.4258C0 39.9658 1.24512 41.2842 3.49121 42.5781L22.6318 53.4668C22.7783 53.5645 22.9248 53.6377 23.0957 53.6865ZM24.7803 25.708L35.2051 19.7998L12.085 6.5918L3.125 11.6943C2.58789 11.9873 2.14844 12.2803 1.75781 12.6465ZM38.5986 17.8711L47.7783 12.6465C47.4121 12.2803 46.9727 11.9873 46.4355 11.6943L29.1992 1.87988C27.71 1.02539 26.2207 0.561523 24.7803 0.561523C23.3154 0.561523 21.8262 1.02539 20.3369 1.87988L15.3809 4.6875Z" fill="#000000"/>
 </g>
</svg>
