<?xml version="1.0" encoding="utf-8"?>
<!-- Generator: Adobe Illustrator 26.4.1, SVG Export Plug-In . SVG Version: 6.00 Build 0)  -->
<svg version="1.1" id="Layer_1" xmlns="http://www.w3.org/2000/svg" xmlns:xlink="http://www.w3.org/1999/xlink" x="0px" y="0px"
	 viewBox="0 0 253.6 252.5" style="enable-background:new 0 0 253.6 252.5;" xml:space="preserve">
<style type="text/css">
	.st0{fill:#FFFFFF;}
</style>
<g>
	<path class="st0" d="M126.8,252.5L162.3,53c33.8,0,44.5,3.7,46,18.8c0,0,22.7-8.5,34.1-25.6c-44.6-20.7-89.5-21.6-89.5-21.6
		l-26.2,31.9h0.1l-26.2-31.9c0,0-44.9,0.9-89.5,21.6c11.4,17.2,34.1,25.6,34.1,25.6C46.8,56.7,57.5,53,91,53L126.8,252.5"/>
	<path class="st0" d="M126.8,15.4c36.1-0.3,77.4,5.6,119.7,24c5.7-10.2,7.1-14.7,7.1-14.7C207.4,6.4,164.1,0.2,126.8,0
		C89.5,0.2,46.2,6.4,0,24.7c0,0,2.1,5.5,7.1,14.7C49.4,20.9,90.7,15.1,126.8,15.4L126.8,15.4"/>
</g>
</svg>
