<?xml version="1.0" encoding="utf-8"?>
<!-- Generator: Adobe Illustrator 25.0.1, SVG Export Plug-In . SVG Version: 6.00 Build 0)  -->
<svg version="1.1" id="레이어_1" xmlns="http://www.w3.org/2000/svg" xmlns:xlink="http://www.w3.org/1999/xlink" x="0px"
	 y="0px" viewBox="0 0 2048 2048" style="enable-background:new 0 0 2048 2048;" xml:space="preserve">
<style type="text/css">
	.st0{fill:#FFCB05;}
	.st1{fill:#FFFFFF;}
	.st2{fill:#0054A6;}
	.st3{fill:none;stroke:#FFCB05;stroke-width:6.889;stroke-miterlimit:10;}
	.st4{fill:none;stroke:#FFCB05;stroke-width:27;stroke-miterlimit:10;}
	.st5{fill:#A4681D;}
	.st6{fill:#ED1B2F;}
	.st7{fill:#FFFFFF;stroke:#FFFFFF;stroke-miterlimit:10;}
	.st8{fill:none;stroke:#FFCB05;stroke-width:20;stroke-linecap:round;stroke-miterlimit:10;}
	.st9{fill:none;stroke:#FFCB05;stroke-width:20;stroke-linecap:round;stroke-miterlimit:10;stroke-dasharray:0,36.5979;}
	.st10{fill:none;stroke:#FFCB05;stroke-width:20;stroke-linecap:round;stroke-miterlimit:10;stroke-dasharray:0,36.2249;}
</style>
<g id="XMLID_1_">
	<g>
		<path class="st0" d="M1024,0c565.5,0,1024,458.5,1024,1024s-458.5,1024-1024,1024S0,1589.5,0,1024S458.5,0,1024,0z M2034.4,1024
			C2034.4,466,1582,13.6,1024,13.6S13.6,466,13.6,1024S466,2034.4,1024,2034.4S2034.4,1582,2034.4,1024z"/>
		<path class="st1" d="M1024,13.6c558,0,1010.4,452.3,1010.4,1010.4S1582,2034.4,1024,2034.4S13.6,1582,13.6,1024
			S466,13.6,1024,13.6z M2000.5,1024c0-539.3-437.2-976.5-976.5-976.5S47.5,484.7,47.5,1024s437.2,976.5,976.5,976.5
			S2000.5,1563.3,2000.5,1024z"/>
		<path class="st2" d="M1024,47.5c539.3,0,976.5,437.2,976.5,976.5s-437.2,976.5-976.5,976.5S47.5,1563.3,47.5,1024
			S484.7,47.5,1024,47.5z M1705.1,1024c0-376.2-304.9-681.1-681.1-681.1s-681.1,305-681.1,681.1s305,681.1,681.1,681.1
			S1705.1,1400.2,1705.1,1024z"/>
		<circle class="st1" cx="1024" cy="1024" r="681.1"/>
	</g>
	<g>
		<circle class="st3" cx="1024" cy="1024" r="1010.4"/>
		<circle class="st4" cx="1024" cy="1024" r="976.5"/>
	</g>
</g>
<g id="g4827" transform="translate(70.001216,11.819418)">
	<path id="path6" class="st5" d="M1763.3,633.3c18.6-19.7,23.6-40.6,23.6-57.8c0-22.9-9.1-39.6-9.3-39.5
		c-35.8,41.1-205.9,203.3-454.9,225.1v-23.2c0-1.4-0.7-1.8-1.9-1.8h-267.6c-1.9-12.6-3.5-24.6-5-35.3l0,0v-0.1l0,0
		c0-0.2-0.5-3-0.5-3c-3.7-26.8-6.9-50.1-12.1-63.9c11.7-8.3,21.6-20,28.5-33.9c6.5-12.9,10-27.1,9.9-39.9v-2.8l-2.3,1.4
		c-3.4,2.1-12.3,5.5-12.4,5.6c-12.6,4.7-35.4,9.8-71.7,7.2c-19.4-1.4-36.8-1.8-51.8-1.2c-15.5,0.7-28,2.5-37.1,5.4
		c-10,3.1-17.9,7.2-24.2,12.5c-5.4,4.5-8.4,9-10.3,12.1c-15.6-1-35.7,0.9-50.3,4.7c-9.8,2.6-17,7.1-22,13.8
		c-5,6.6-7.5,15.2-7.7,25.9v0.1c0,6.4,1.4,17.1,5.3,28.3c5.1,14.5,13.1,26.4,23.7,35.4l2.2,1.8l0.4-2.8c0.2-0.7,2.8-17.4,27.7-18.1
		c2.3,0,6.5,0.1,8.4,0.1c5.6,0.2,9.6,1.6,11.6,3.9c1.8,2.2,2.3,6.1,1.4,11.5c0,0.5-2.2,13.3-6.3,27h-0.1v0.1
		c-0.1,0.2-0.6,1.8-1.2,4.3H587.1c-1.2,0-1.9,0.4-1.9,1.8v23.2c-249-21.8-419-184-454.9-225.1c-0.2-0.2-9.2,16.6-9.2,39.5
		c0,17.2,5,38,23.6,57.8c0,0,0.1,0.1,0.2,0.3c-7.5,18.4-17.6,68.3,32,110.1c-0.9,4.7-1.7,11.9-1.7,19.4c0,24.9,9.1,61.8,55,92.7
		c0,0,3.2,2.2,5.3,3.5c-0.7,9.7,0.5,81.8,103.8,107.3c10.2,29.7,38.5,67.3,108,72c19.6,31.8,47.7,48.1,86.1,47.7
		c9.1,14.2,27,25.7,48.3,30.9c14.1,3.3,28.4,3.6,42.3,0.9c4.4,3.5,12.6,8.3,23.3,12.4c0,0,0.1,0,0.2,0.1
		c-12.4,9-18.5,20.1-22.6,32.9c-6.8,20.7-6.8,40.4,15,68.8c7.3,10.2,11.5,18.8,13.7,28.8c2.2,9.8,2.7,21,2.7,37.1
		c0,10.1,2.1,19.6,6.1,28.2c4.1,8.5,10.1,15.9,17.5,21.2c4.3,3.1,9.1,5.6,14.3,7.3c-3.2,4.4-5.6,9.3-7.3,14.4
		c-2.8,8.6-3.4,18.1-1.6,27.4c1.7,9.4,5.6,18.2,11.6,26.5c9.4,13,15.7,22.4,19.6,31.5c4.1,9.5,5.8,18.8,5.8,31.4
		c-0.8,35.8,10.7,51.7,28.3,64.4c17.7,12.8,36.3,18.9,70.2,7c11.9-3.9,21.3-5.1,31.5-4.2c10,0.9,20.8,4,36.1,9
		c9.6,3.2,19.3,4.1,28.7,2.9c9.4-1.3,18.2-4.7,25.6-10c4.3-3.1,8.1-7,11.4-11.4c3.3,4.4,7.1,8.3,11.4,11.4c7.3,5.3,16.2,8.7,25.5,10
		c9.4,1.2,19.1,0.3,28.7-2.9c15.4-5,26.2-8,36.1-9c10.2-1,19.7,0.3,31.5,4.2c33.9,11.9,52.5,5.8,70.2-7
		c17.6-12.8,29.1-28.6,28.3-64.4c0-12.5,1.7-21.9,5.8-31.4c4-9.2,10.2-18.5,19.7-31.5c5.9-8.2,9.8-17.1,11.6-26.5
		c1.7-9.2,1.1-18.7-1.7-27.4c-1.6-5.1-4-9.9-7.3-14.4c5.3-1.7,10.1-4.2,14.4-7.4c7.4-5.3,13.4-12.7,17.4-21.2
		c4.1-8.6,6.1-18.1,6.1-28.2c0.1-16.1,0.5-27.3,2.7-37.1c2.2-10,6.4-18.6,13.8-28.8c21.7-28.4,21.7-48,14.9-68.8
		c-4.2-12.9-10.3-24-22.6-32.9c0.1,0,0.2-0.1,0.2-0.1c10.7-4.2,18.8-9,23.2-12.4c14.1,2.7,28.4,2.4,42.4-0.9
		c21.2-5.2,39.2-16.6,48.3-30.9c38.4,0.4,66.5-15.8,86-47.7c69.5-4.7,97.9-42.3,108.1-72c103.2-25.5,104.5-97.6,103.7-107.3
		c2-1.3,5.3-3.5,5.3-3.5c45.9-30.9,55-67.8,55-92.7c0-7.5-0.8-14.7-1.7-19.4c49.6-41.8,39.5-91.6,32.1-110.1
		C1763.2,633.4,1763.3,633.3,1763.3,633.3L1763.3,633.3 M825,856.5c-20-2-62.3-10.3-95-45.1c-7.5-8-16.4-16.2-24.6-22.5
		c15.4,1.4,104,9.4,136.1,12.2C836.7,818.2,831.1,837,825,856.5L825,856.5 M1178.1,811.4c-32.7,34.8-75.1,43.1-95.1,45.1
		c-6.1-19.6-11.7-38.4-16.3-55.4c32.1-2.8,120.6-10.8,136-12.2C1194.4,795.2,1185.6,803.4,1178.1,811.4z"/>
	<g id="eagleFeathers">
		<path id="path9" class="st0" d="M1370.1,910.1h-111.4l0.4-0.7l55.3-119.9L1370.1,910.1L1370.1,910.1L1370.1,910.1z"/>
		<path id="path11" class="st0" d="M1412.2,847.4c-16.6,5.8-34.3,8.7-51.9,9.7l-17.8-37.8c41.2-5.6,80.3-14.2,116.8-24.9
			C1457.6,806.6,1449.7,834.3,1412.2,847.4z"/>
		<path id="path13" class="st0" d="M1423.1,856.9c-6,24.6-19.3,41.2-39.6,49.7l-17.5-37.4c17.2-1.2,34.4-4.2,50.7-9.9
			C1418.9,858.6,1421,857.7,1423.1,856.9z"/>
		<path id="path15" class="st0" d="M1131.5,1112.5c0-1.8-0.5-3.3-1.7-4.6c-1.2-1.3-2.7-1.8-4.4-1.8c-0.7,0-1.4,0.1-2.1,0.3
			c-0.9,0.3-1.8,0.8-2.4,1.5l-60.8,61.9c-4.3-4.6-9-8.9-14-12.9l54.4-72.7c7.7-10.6,19-18.2,30.8-18.3c12.7,0,24.3,5.6,33.1,17.5
			c9.9,13.7,18,23.9,27.3,32c-19.6,13.7-68.3,47.7-112.9,78.9c-3.6-5.8-7.5-11.3-11.8-16.6l62.7-60.8
			C1131,1115.7,1131.7,1114.1,1131.5,1112.5L1131.5,1112.5L1131.5,1112.5z"/>
		<path id="path17" class="st0" d="M1057.4,1056.7c-0.6-1.6-1.6-2.8-3.1-3.6c-1.6-0.8-3.2-0.8-4.9-0.3c-1.5,0.4-2.9,1.5-3.6,3
			l-38.5,78.4c-6.2-2.5-12.8-4.5-19.3-6.1c15.8-52,33.1-108.9,40.1-131.7c10.4,6.4,22.7,10.9,38.8,16.1
			c14.1,4.8,22.9,13.9,26.9,26.1c3.6,11.3-0.1,24.4-7.8,34.9l-52.3,74.3c-5.3-3.5-11-6.6-16.7-9.4l40.1-76.9
			c0.5-0.9,0.7-1.8,0.7-2.8C1057.7,1058.1,1057.6,1057.4,1057.4,1056.7L1057.4,1056.7L1057.4,1056.7z"/>
		<path id="path19" class="st0" d="M851,1061.6l40.1,76.9c-5.8,2.7-11.4,5.8-16.7,9.4l-52.3-74.3c-7.7-10.6-11.3-23.7-7.8-34.9
			c3.9-12.1,12.7-21.3,26.8-26.1c16.1-5.2,28.4-9.7,38.9-16.1c7,22.8,24.2,79.7,40.1,131.7c-6.6,1.6-13,3.6-19.3,6.1l-38.5-78.4
			c-0.7-1.5-2.1-2.6-3.6-3c-1.6-0.6-3.3-0.5-4.9,0.3c-1.6,0.7-2.5,2-3,3.6c-0.3,0.7-0.4,1.4-0.4,2.1
			C850.3,1059.7,850.5,1060.7,851,1061.6L851,1061.6L851,1061.6z"/>
		<path id="path21" class="st0" d="M778.3,1116.9l62.7,60.8c-4.3,5.2-8.2,10.8-11.8,16.6c-44.6-31.2-93.3-65.2-112.9-78.9
			c9.3-8,17.4-18.2,27.3-32c8.8-11.9,20.3-17.5,33.1-17.5c11.8,0.1,23.1,7.7,30.8,18.3l54.5,72.7c-4.9,4.1-9.7,8.4-14,12.9
			l-60.7-61.9c-0.6-0.7-1.5-1.2-2.5-1.5c-0.7-0.2-1.3-0.3-2-0.3c-1.7,0-3.3,0.6-4.4,1.8c-1.2,1.2-1.8,2.8-1.8,4.6
			C776.4,1114.1,777.1,1115.7,778.3,1116.9L778.3,1116.9L778.3,1116.9z"/>
		<path id="path23" class="st0" d="M1245.4,838.7c11.8-7.7,24.8-12.5,38.4-13.8l-10.7,22.6C1262.3,844.7,1252.8,841.6,1245.4,838.7
			L1245.4,838.7z"/>
		<path id="path25" class="st0" d="M1267.8,858.7l-13.6,28.6c-16.6-8.3-30-16.7-37.3-21.5c0.7-0.8,1.3-1.7,2-2.5
			c4.7-5.9,9.8-11.4,15.2-16.1C1242.4,851,1254,855.1,1267.8,858.7z"/>
		<path id="path27" class="st0" d="M1206.9,854.1c-24.9,33.4-66.2,55.4-105.4,59.2c-4.2-13-8.5-25.9-12.6-38.7
			c22.9-2.5,67-12.3,103.2-50.9c22.5-24,51.7-44.1,93.7-43.9c6.4,0,12.9-0.1,19.4-0.3l-14.5,30.8
			C1262.2,810.5,1230.6,822.5,1206.9,854.1L1206.9,854.1L1206.9,854.1z"/>
		<path id="path29" class="st0" d="M1122.5,1049.6c-2.5,0.4-4.9,1-7.4,1.8c-0.8,0.3-1.7,0.6-2.6,0.9c0.1-0.9,0.1-1.8,0.1-2.7
			c0-5.4-0.8-10.6-2.4-15.5c-0.2-0.3-0.3-0.6-0.4-0.9c2.3-3,4.7-6.7,6.9-11.4C1119.3,1031.9,1121.2,1041.2,1122.5,1049.6
			L1122.5,1049.6L1122.5,1049.6z"/>
		<path id="path31" class="st0" d="M1105.1,1023c-6.3-10.2-16.1-18.4-28.2-23.4c2.3-1.7,16.4-13.5,21.8-38.1
			c5.4,16.4,10.3,32.2,14.4,46.8C1110.9,1014.3,1107.9,1019.3,1105.1,1023z"/>
		<path id="path33" class="st0" d="M1055.1,944.9c6.5-6.4,18.2-21.2,22.5-46.5c0.1-0.1,0.1-0.1,0.1-0.2c3.8,11.4,7.7,22.8,11.4,34.3
			l0.2,0.7c1.2,3.6,2.4,7.2,3.6,10.9c-0.8,24.6-13.7,40.6-19,44C1068.8,984.7,1056.1,969,1055.1,944.9L1055.1,944.9L1055.1,944.9z"
			/>
		<path id="path35" class="st0" d="M1067.4,996.3c-11.7-3.8-20.7-7.3-28.4-11.5c4.1-4.7,8.3-11.1,11.2-19.5
			C1054.7,981.4,1062.7,991.4,1067.4,996.3L1067.4,996.3z"/>
		<path id="path37" class="st0" d="M1074.1,887.3c-1.2,1.4-2.4,2.4-3.3,3.1c-5-3.1-16.9-17-19.5-38.7c1.6-1.3,5-4.5,8.5-9.5
			C1064.3,856.7,1069.1,871.9,1074.1,887.3z"/>
		<path id="path39" class="st0" d="M1068.4,902.2L1068.4,902.2c-5.4,19.7-15.7,31.8-20.3,34.8c-5-3.2-16.6-17.2-19.6-39.7
			c3.8-3.3,12.8-12.5,18.2-28.8C1053.6,891.5,1067.6,901.7,1068.4,902.2L1068.4,902.2L1068.4,902.2z"/>
		<path id="path41" class="st0" d="M1024.3,886.9c-4.7-3.1-15.5-16.2-18.3-36.5c4.5-4.1,13.4-14.2,18.3-31.4
			c4.9,17.2,13.8,27.3,18.3,31.4C1039.8,870.6,1029,883.8,1024.3,886.9z"/>
		<path id="path43" class="st0" d="M1000.9,840.7c-4.7-3-15.4-16-18.3-36c4.5-4.1,13.4-14.2,18.3-31.3c4.9,17.1,13.7,27.2,18.2,31.3
			C1016.2,824.8,1005.5,837.7,1000.9,840.7z"/>
		<path id="path45" class="st0" d="M995.7,850.3c-2.7,20.3-13.5,33.4-18.3,36.5c-4.6-3.1-15.5-16.2-18.3-36.5
			c4.4-4.1,13.4-14.2,18.3-31.4C982.3,836.2,991.3,846.2,995.7,850.3z"/>
		<path id="path47" class="st0" d="M954,840.7c-4.7-3-15.4-16-18.2-36c4.4-4.1,13.3-14.2,18.2-31.3c4.8,17.1,13.8,27.2,18.2,31.3
			C969.3,824.8,958.7,837.7,954,840.7z"/>
		<path id="path49" class="st0" d="M948.9,850.3c-2.8,20.3-13.6,33.4-18.3,36.5c-4.7-3.1-15.5-16.2-18.3-36.5
			c4.4-4.1,13.4-14.2,18.3-31.4C935.5,836.2,944.5,846.2,948.9,850.3z"/>
		<path id="path51" class="st0" d="M907.2,840.7c-4.6-3-15.3-16-18.2-36c4.4-4.1,13.4-14.2,18.2-31.3c4.8,17.1,13.8,27.2,18.2,31.3
			C922.5,824.8,911.8,837.7,907.2,840.7z"/>
		<path id="path53" class="st0" d="M902.1,850.3c-2.9,20.3-13.7,33.4-18.3,36.5c-4.7-3.1-15.6-16.2-18.3-36.5
			c4.4-4.1,13.5-14.2,18.3-31.4C888.6,836.2,897.6,846.2,902.1,850.3z"/>
		<path id="path55" class="st0" d="M879.5,897.3c-3.1,22.5-14.7,36.5-19.6,39.7c-4.6-3-14.9-15.1-20.3-34.8l0,0
			c0.9-0.5,14.9-10.7,21.8-33.7C866.7,884.8,875.7,894,879.5,897.3L879.5,897.3L879.5,897.3z"/>
		<path id="path57" class="st0" d="M795.5,1052.3c-0.9-0.3-1.7-0.6-2.6-0.9c-2.5-0.8-4.9-1.4-7.4-1.8c1.2-8.3,3.2-17.7,5.7-27.8
			c2.2,4.7,4.6,8.3,6.9,11.4c-0.2,0.3-0.2,0.6-0.3,0.9c-1.6,4.9-2.4,10.1-2.4,15.5C795.5,1050.5,795.5,1051.4,795.5,1052.3
			L795.5,1052.3z"/>
		<path id="path59" class="st0" d="M794.9,1008.3c4.1-14.6,9.1-30.4,14.4-46.8c5.4,24.6,19.6,36.4,21.8,38.1
			c-12.1,5-21.9,13.2-28.2,23.4C800.1,1019.3,797.2,1014.3,794.9,1008.3z"/>
		<path id="path61" class="st0" d="M815.1,944c1.2-3.6,2.4-7.3,3.6-10.9l0.2-0.7c3.8-11.5,7.6-22.9,11.3-34.3
			c0.1,0.1,0.1,0.1,0.1,0.2c4.2,25.3,16,40.1,22.4,46.5c-1,24-13.7,39.7-18.9,43.1C828.8,984.6,815.9,968.6,815.1,944L815.1,944
			L815.1,944z"/>
		<path id="path63" class="st0" d="M857.7,965.2c2.9,8.4,7.1,14.8,11.3,19.5c-7.8,4.2-16.8,7.7-28.5,11.5
			C845.3,991.4,853.3,981.4,857.7,965.2z"/>
		<path id="path65" class="st0" d="M837.3,890.4c-1-0.7-2.1-1.7-3.4-3.1c5.1-15.4,9.9-30.6,14.3-45.1c3.6,5,6.9,8.2,8.5,9.5
			C854.1,873.4,842.2,887.2,837.3,890.4L837.3,890.4z"/>
		<path id="path67" class="st0" d="M715.9,823.8c36.2,38.6,80.3,48.5,103.2,50.9c-4.1,12.8-8.4,25.8-12.7,38.7
			c-39.1-3.8-80.4-25.9-105.2-59.2c-23.7-31.7-55.4-43.6-83.8-43.7l-14.6-30.8c6.6,0.2,13,0.3,19.4,0.3
			C664.3,779.7,693.4,799.8,715.9,823.8L715.9,823.8L715.9,823.8z"/>
		<path id="path69" class="st0" d="M662.6,838.7c-7.5,3-16.9,6.1-27.7,8.8l-10.7-22.6C637.9,826.2,650.8,831,662.6,838.7z"/>
		<path id="path71" class="st0" d="M673.8,847.2c5.5,4.7,10.6,10.2,15.2,16.1c0.7,0.9,1.3,1.7,2,2.5c-7.3,4.8-20.7,13.1-37.3,21.5
			l-13.5-28.6C654.1,855.1,665.6,851,673.8,847.2z"/>
		<path id="path73" class="st0" d="M665.4,912.1l-6.3-13.4c18.5-9.4,32.9-18.7,39.9-23.5c5.5,6,11.1,11.5,17,16.5
			c-14.3,17.2-59.8,65.1-118.6,64.3c-33.6-0.4-50.8-16.9-59-29c13,6.6,32.2,13.5,55.1,13.5c36.9,0,63.4-17.1,70.9-23.3
			C666.9,915.2,666.2,913.7,665.4,912.1L665.4,912.1z"/>
		<path id="path75" class="st0" d="M725.9,899.3c6.3,4.5,13,8.6,19.8,12c-8.3,15.6-40.1,68.7-92.9,77.6
			c-31.7,5.3-47.8-10.9-54.2-20.2C664.3,969,711.5,917.2,725.9,899.3z"/>
		<path id="path77" class="st0" d="M756.9,916.4c7.4,3.1,15.2,5.5,23.2,7.4c-5.9,17.8-23.2,61.4-53.8,79.1c-28.6,16.4-50,4.8-60.5-4
			C719.7,984.2,749.5,931.4,756.9,916.4z"/>
		<path id="path79" class="st0" d="M733,1013.5c36-20.6,53.8-69.4,59.4-87.3c3.1,0.5,6.2,0.9,9.5,1.3c-9.7,29-19.1,57.2-25.8,81.9
			c-18.3,15-39.1,10.7-49.1,7.4C729,1015.8,730.9,1014.7,733,1013.5z"/>
		<path id="path81" class="st0" d="M878.7,978.3c-6.7-5.1-14.2-15.3-16.2-29.7c1.3-0.9,14.5-11.1,21.4-33.4
			c7.3,20.7,19.8,30.3,20.6,30.8l1.4,1c-3.8,4-7.4,8.7-11.1,14C889.5,968.3,884.4,973.9,878.7,978.3z"/>
		<path id="path83" class="st0" d="M887.6,897.6c3.8-3.2,14.1-13.5,19.5-32.5c5.4,19,15.8,29.3,19.6,32.5
			c-3.9,20.4-14.8,33.6-19.6,36.7C902.4,931.2,891.5,918,887.6,897.6z"/>
		<path id="path85" class="st0" d="M931.8,911.3c2.5,6.5,5.5,11.9,8.5,16.1c-5,0.9-10.4,2.5-15.8,5.2c-1.5,0.7-2.9,1.6-4.4,2.5
			C924.2,929.5,928.6,921.7,931.8,911.3L931.8,911.3z"/>
		<path id="path87" class="st0" d="M935.8,896.5c4.4-4.1,13.4-14.2,18.3-31.4c4.8,17.2,13.8,27.2,18.3,31.4
			c-4.1,15.1-11.7,25.6-16.4,29.9c-0.7-0.1-1.2-0.1-1.8-0.1s-1.2,0-1.9,0.1C947.4,922.1,939.7,911.6,935.8,896.5L935.8,896.5z"/>
		<path id="path89" class="st0" d="M976.3,911.3c3.1,10.4,7.6,18.2,11.7,23.8c-1.5-0.9-2.9-1.8-4.4-2.5c-5.4-2.7-10.7-4.3-15.8-5.2
			C970.7,923.2,973.8,917.8,976.3,911.3z"/>
		<path id="path91" class="st0" d="M981.4,897.6c3.7-3.2,14.1-13.5,19.5-32.5c5.3,19,15.8,29.3,19.5,32.5
			c-3.9,20.4-14.8,33.6-19.5,36.7C996.2,931.2,985.2,918,981.4,897.6z"/>
		<path id="path93" class="st0" d="M1003.4,946.1c0.8-0.5,13.3-10.1,20.7-30.8c6.9,22.3,20.1,32.5,21.4,33.4
			c-2,14.3-9.6,24.5-16.2,29.7c-5.7-4.5-10.8-10-16.1-17.3c-3.6-5.3-7.3-10-11-14L1003.4,946.1z"/>
		<path id="path95" class="st0" d="M1106.2,927.5c3.2-0.4,6.4-0.8,9.4-1.3c5.6,18,23.5,66.7,59.4,87.3c2.1,1.2,4.1,2.2,6.1,3.2
			c-9.9,3.4-30.9,7.6-49.1-7.4C1125.3,984.7,1115.9,956.5,1106.2,927.5L1106.2,927.5z"/>
		<path id="path97" class="st0" d="M1127.9,923.8c8.1-1.9,15.8-4.3,23.2-7.4c7.5,15,37.2,67.9,91,82.6c-10.5,8.8-31.8,20.4-60.5,4
			C1151,985.2,1133.8,941.6,1127.9,923.8z"/>
		<path id="path99" class="st0" d="M1162.3,911.3c6.8-3.5,13.4-7.5,19.7-12c14.4,17.9,61.6,69.7,127.3,69.5
			c-6.4,9.2-22.6,25.5-54.3,20.2C1202.4,980.1,1170.5,926.9,1162.3,911.3L1162.3,911.3z"/>
		<path id="path101" class="st0" d="M1191.8,891.8c5.9-5,11.6-10.5,17-16.5c7.1,4.8,21.5,14.1,40,23.5l-6.3,13.4
			c-0.7,1.6-1.4,3.1,1,5.2c7.5,6.2,34,23.3,70.8,23.3c22.9,0,42.1-6.9,55.1-13.5c-8.2,12.1-25.4,28.5-59,29
			C1251.6,956.9,1206.3,908.9,1191.8,891.8z"/>
		<path id="path103" class="st0" d="M1306,753.8v8.4c0,0-194.1,15.7-244.1,20.1c-2.1-9.1-3.9-17.5-5.1-25.2l0,0V757
			c-0.2-1-0.4-2.1-0.6-3.2H1306L1306,753.8L1306,753.8z"/>
		<path id="path105" class="st0" d="M1056.3,830.6c-3.1,5.2-6.5,8.7-8.7,10.1c-4.7-3-15.3-16-18.2-36c3.6-3.4,9.8-10.5,14.1-22.1
			C1046.9,797.2,1051.3,813.4,1056.3,830.6L1056.3,830.6z"/>
		<path id="path107" class="st0" d="M852.7,671.6L852.7,671.6c-2.2-0.1-6.7-0.1-9-0.1c-4.2,0-23.5,0.4-28.9,12
			c-3.8-5.7-6.9-11.7-9-18.1c-2.2-6.8-3.4-13.9-3.4-20.5c0.1-6.9,1.4-11.9,4-15.4c2.5-3.3,6.6-5.6,12.3-7.2
			c13.1-3.5,31.9-5.1,45.7-4.1l0.1,0.1h0.1l4.4,0.3c6.8,0.3,25.5,11,36.9,28.8c0,0,40.1-7.5,67.2-33.9c0,0-50.5,5.2-92.4-0.8
			c-0.7-0.1-2.1-0.7-1.3-2.5c0,0,0.2-0.5,0.6-1.1c0-0.1,0-0.1,0-0.1c3.3-5,8.5-11.3,24.1-16.2h0.1c7.5-2.4,18.7-3.9,32.5-4.5
			c14.2-0.6,31-0.3,49.8,1.1c28.3,2,49.4-0.3,64.3-3.8c-4.3,11.3-12.2,24.8-26.6,34.6h-0.1l0,0l-5.1,3.5l-5.4,3.8l2.6,6.1l2.3,5.6
			c4.6,11.6,7.9,34.6,11.6,61.1l0.4,3.1c2.2,16.7,5,36.5,8.5,56.7c0,0.4,0.1,0.8,0.1,1.1c-1,18.7-10.3,30.9-14.8,34h-0.3
			c-5.5-3.7-18.6-20.3-18.8-45.5h-1.2h-6.6h-1.2c-0.2,25.2-13.3,41.9-18.8,45.5h-0.2c-5.5-3.7-18.6-20.3-18.9-45.5h-1.2h-6.6h-1.2
			c-0.2,25.2-13.3,41.9-18.8,45.5h-0.3c-5.4-3.7-18.6-20.3-18.8-45.5h-1.1h-6.7h-1.2c-0.2,25.2-13.3,41.9-18.8,45.5h-0.2
			c-4.4-3-13.2-14.4-14.7-32.1c2.9-11.7,6.8-25.2,7-26c4.5-15.1,6.8-28.6,6.9-29.2v-0.1c1.7-10.7-0.1-19.3-5.3-25.7
			C872.2,675.6,863.7,672,852.7,671.6L852.7,671.6L852.7,671.6z"/>
		<path id="path109" class="st0" d="M878.5,804.8c-2.9,20-13.6,32.9-18.2,36c-2.1-1.4-5.5-4.9-8.7-10.1c5.1-17.2,9.5-33.4,12.8-48
			C868.8,794.2,875,801.4,878.5,804.8z"/>
		<path id="path111" class="st0" d="M602,753.8h250.7c-1.3,4.9-2.5,9.9-3.4,14.1v0.1v0.1c-1,4.6-2,9.4-3.2,14.3
			C794,777.8,602,762.2,602,762.2V753.8L602,753.8L602,753.8z"/>
		<path id="path113" class="st0" d="M593.6,789.5L649,909.4l0.4,0.7H538L593.6,789.5L593.6,789.5z"/>
		<path id="path115" class="st0" d="M491.4,859.3c16.2,5.7,33.5,8.8,50.7,9.9l-17.6,37.4c-20.3-8.5-33.6-25.2-39.6-49.7
			C487,857.7,489.1,858.6,491.4,859.3z"/>
		<path id="path117" class="st0" d="M448.6,794.3c36.7,10.7,75.7,19.3,116.8,24.9L547.8,857c-17.7-1-35.4-3.9-52-9.7
			C458.4,834.3,450.3,806.6,448.6,794.3z"/>
		<path id="path119" class="st0" d="M139.4,570.9c104,105.9,281.6,195.9,445.1,207.6l-13,27.8C354.7,780,202.7,664.6,155.2,618.5
			C137.9,601.9,135.9,581.7,139.4,570.9z"/>
		<path id="path121" class="st0" d="M159.8,642.5C205,682.9,303,749.2,435,790.2c0.5,8,3.8,30.4,22.8,48.9
			c-86.5-10.6-204.6-51.8-269-108.3C148.7,695.7,153.2,660.8,159.8,642.5z"/>
		<path id="path123" class="st0" d="M192.9,753.2c74.3,57.4,194.4,92.8,277.7,99.9c2.8,14.7,8.3,30.1,18.7,42.9
			c-75.3,5.8-176.5-6.1-249.4-55C193.2,809.5,190.6,771.9,192.9,753.2z"/>
		<path id="path125" class="st0" d="M323,944.9c-38.4-14.6-65.3-40.5-69.2-78.3c76.9,41.8,175.5,48.5,247.2,41.1
			c5.2,4.2,11.4,7.9,18.5,10.8c1,3,6.2,16.1,19.1,28.2C510.3,955.4,414.3,979.7,323,944.9z"/>
		<path id="path127" class="st0" d="M454.8,1021.5c-48.5-1.8-80.2-18.6-94.5-50.3c95.3,20,179.9-11.1,190.5-15.2
			c8.5,5.3,19.1,9.7,32.2,11.6c0.6,1.3,4.6,9.6,13.3,17.9C579.9,995,523.6,1024.1,454.8,1021.5z"/>
		<path id="path129" class="st0" d="M466.6,1036.6c66.1-1.2,122.9-31,140.7-42.9c10.3,6.2,24.5,10.5,43.2,8.2
			c2.1,2.2,5.3,5.3,9.4,8.4c-14.4,14-52.6,46.2-106.2,55.5C513.5,1072.9,486,1063.2,466.6,1036.6z"/>
		<path id="path131" class="st0" d="M587.6,1100.7c-14.4-1.8-27.5-10.2-35.5-19.1c62.7-8.5,104.8-48.3,119.4-64.2
			c10.4,5.2,24.1,8.4,40.1,4.7c2,2.1,5.8,4.5,10.9,6.4C707.9,1048.7,657.5,1109.5,587.6,1100.7z"/>
		<path id="path133" class="st0" d="M644.7,1109.7c49.2-17.2,82.3-62.9,91.8-77.5c10.6,1.5,23.2,0.8,35.1-4.8
			c-1.9,8.1-3.3,15.6-4.1,22.5c-14.1,2.7-27.1,11.3-36.6,24.3c-18.4,25.3-28.3,36.4-53,44.4c-0.1,0-0.4,0.1-0.5,0.1
			C663.2,1117.9,652.2,1113.7,644.7,1109.7L644.7,1109.7L644.7,1109.7z"/>
		<path id="path135" class="st0" d="M654.2,1221.9c-19-26.2-16-39.8-11.8-52.7c4.1-12.9,9.7-25.7,40.5-35.7
			c9.4-3.1,17-6.6,23.8-10.9c18,12.4,70.1,48.1,117.5,80.6c-2.8,5.5-5.3,11.2-7.5,17.1l-116.9-39.4c-3.4-1.1-7.3,0.7-8.5,4.3
			c-1.1,3.6,0.8,7.3,4.4,8.5l117.7,36.8c-1.7,6-3,12-3.9,18.2c-57.3-1.6-120.6-3.3-142.4-3.9C664.1,1237.2,660,1229.9,654.2,1221.9
			L654.2,1221.9z"/>
		<path id="path137" class="st0" d="M690.4,1331.7c-10.3-7.5-16.4-18.7-16.6-33.6c0-16.9-0.5-29.9-3.3-41.9
			c23.9,0.4,83.3,1.5,137.7,2.5c-0.3,3.9-0.4,7.8-0.4,11.7c0,2.9,0.1,5.7,0.2,8.6l-86.5,12.3c-1.6,0.2-3.1,1.2-4.1,2.5
			c-1,1.4-1.5,3-1.2,4.7c0.2,1.7,1.1,3,2.5,4.1c0.5,0.4,1.2,0.7,1.7,1c1,0.3,2,0.4,3,0.2l85.5-14.4c0.9,6.3,2.1,12.6,3.7,18.8
			l-86.8,26.8C713.5,1339.1,700,1338.5,690.4,1331.7L690.4,1331.7L690.4,1331.7z"/>
		<path id="path139" class="st0" d="M711.1,1412.7c-8.6-12.1-10.3-24.7-6.4-36.9c3.7-11.2,14.3-19.6,26.8-23.7l85.9-29.3
			c2.3,6,5,11.8,8,17.4l-77.6,38.6c-0.9,0.4-1.6,1.1-2.2,1.9c-0.4,0.5-0.7,1.1-1,1.8c-0.4,1.6-0.4,3.2,0.4,4.7
			c0.8,1.5,2.1,2.5,3.8,3.1c1.6,0.6,3.3,0.4,4.8-0.3l77.2-40.8c3.6,5.7,7.7,11.1,12.1,16.3c-43.4,32.8-90.8,68.6-109.9,83
			C728.3,1437.3,721.1,1426.4,711.1,1412.7L711.1,1412.7L711.1,1412.7z"/>
		<path id="path141" class="st0" d="M840.8,1535.5c-8,0.5-16.3,2.1-25.7,5.1c-30.7,10-42.7,2.9-53.7-5.1S740,1518.3,740,1486
			c0-9.9-1-18.3-3-26c17.3-13.3,67.5-51.9,113-86.9c4.4,4.4,8.9,8.5,13.8,12.4l-73.6,99c-2.2,3-1.6,7.2,1.5,9.4
			c3,2.2,7.2,1.4,9.4-1.4l71.5-100.7c5.1,3.5,10.5,6.6,16,9.4C869.3,1455.2,848.2,1514.9,840.8,1535.5L840.8,1535.5z"/>
		<path id="path143" class="st0" d="M945,1507.2c0,13.2-4.7,25.8-14.2,32.8c-10.4,7.5-22.9,9.8-37,5.4c-16.1-5.3-28.6-8.8-40.9-9.8
			c7.9-22.6,27.2-78.8,45-130.2c6.2,2.7,12.7,4.8,19.2,6.5l-14.9,86c-0.3,1.7,0.1,3.4,1.1,4.7c1,1.4,2.4,2.3,4.1,2.6
			c1.7,0.3,3.3-0.1,4.6-1.1c0.7-0.4,1.1-0.9,1.5-1.4c0.6-0.8,1-1.7,1.2-2.7l12.7-85.8c6.2,1.2,12.6,1.9,19,2.3L945,1507.2z"/>
		<path id="path145" class="st0" d="M954,994.2c-3.8,0-6.7,3.1-6.7,6.7l1.3,123.4c-6.3,0.2-12.4,0.8-18.5,1.8
			c-16.2-55-34.1-115.7-40.4-136.7c6.2-5.1,11.9-11.3,17.8-19.2c19-26.2,32.9-27.5,46.5-27.5s27.5,1.3,46.4,27.5
			c5.8,7.9,11.6,14.1,17.8,19.2c-6.2,21-24.1,81.7-40.4,136.7c-6-1-12.2-1.6-18.5-1.8l1.3-123.4C960.7,997.3,957.7,994.2,954,994.2z
			"/>
		<path id="path147" class="st0" d="M1014.3,1545.4c-14.1,4.4-26.7,2.1-37-5.4c-9.6-7-14.3-19.7-14.3-32.8l-1.3-90.8
			c6.5-0.3,12.8-1.1,19-2.3l12.7,85.8c0.2,0.9,0.5,1.9,1.1,2.7c0.5,0.6,0.9,1.1,1.5,1.4c1.4,1,2.9,1.5,4.6,1.1
			c1.8-0.3,3.1-1.2,4.2-2.6c1.1-1.3,1.5-3,1.2-4.7l-14.9-86c6.6-1.7,13-3.8,19.2-6.5c17.8,51.4,37.1,107.6,44.9,130.2
			C1042.9,1536.6,1030.4,1540.1,1014.3,1545.4L1014.3,1545.4z"/>
		<path id="path149" class="st0" d="M1168,1486c0.1,32.3-10.4,41.5-21.4,49.5c-11.1,7.9-23,15.1-53.7,5.1
			c-9.4-3.1-17.7-4.7-25.7-5.1c-7.2-20.6-28.5-80.2-47.7-134.3c5.6-2.8,11-5.9,16.1-9.4l71.4,100.7c2.2,2.8,6.4,3.6,9.4,1.4
			s3.6-6.4,1.5-9.4l-73.7-99c4.9-3.9,9.5-8,13.9-12.4c45.5,35,95.6,73.6,113,86.9C1169,1467.7,1168.1,1476.1,1168,1486L1168,1486z"
			/>
		<path id="path151" class="st0" d="M1196.9,1412.7c-9.9,13.6-17.2,24.5-21.9,35.9c-19.1-14.4-66.5-50.3-109.9-83
			c4.4-5.2,8.4-10.6,12.2-16.3l77.2,40.8c1.5,0.8,3.3,0.9,4.8,0.3c1.6-0.6,3-1.6,3.8-3.1s0.9-3.2,0.4-4.7c-0.2-0.7-0.5-1.3-0.9-1.8
			c-0.6-0.8-1.3-1.5-2.2-1.9l-77.6-38.6c3-5.5,5.7-11.3,8.1-17.4l85.9,29.3c12.4,4.1,23.1,12.5,26.8,23.7
			C1207.2,1388,1205.5,1400.6,1196.9,1412.7L1196.9,1412.7L1196.9,1412.7z"/>
		<path id="path153" class="st0" d="M1234.1,1298.1c-0.1,14.9-6.1,26.1-16.5,33.6c-9.5,6.9-23.2,7.4-35.6,3.4l-86.8-26.8
			c1.7-6.2,2.9-12.4,3.8-18.8l85.4,14.4c1,0.2,2,0.1,2.9-0.2c0.7-0.2,1.3-0.5,1.9-1c1.4-1.1,2.2-2.4,2.5-4.1s-0.3-3.3-1.2-4.7
			c-0.9-1.3-2.4-2.3-4.1-2.5l-86.5-12.3c0.1-2.9,0.2-5.7,0.2-8.6c0-4-0.2-7.8-0.4-11.7c54.4-1,113.8-2.1,137.7-2.5
			C1234.7,1268.2,1234.1,1281.2,1234.1,1298.1L1234.1,1298.1L1234.1,1298.1z"/>
		<path id="path155" class="st0" d="M1253.8,1221.9c-5.8,8-9.9,15.3-12.8,22.8c-21.8,0.6-85.1,2.3-142.5,3.9
			c-0.9-6.2-2.2-12.2-3.9-18.2l117.8-36.8c3.5-1.2,5.5-4.9,4.3-8.5c-1.1-3.5-5-5.4-8.5-4.3l-117,39.4c-2.2-5.9-4.7-11.6-7.5-17.1
			c47.3-32.4,99.5-68.2,117.5-80.6c6.7,4.3,14.4,7.9,23.8,10.9c30.8,10,36.2,22.8,40.5,35.7
			C1269.8,1182.1,1272.9,1195.7,1253.8,1221.9L1253.8,1221.9z"/>
		<path id="path157" class="st0" d="M1230.6,1118.7c-0.1,0-0.4-0.1-0.5-0.1c-24.6-8-34.6-19.1-53-44.4c-9.5-13-22.4-21.6-36.6-24.3
			c-0.9-6.9-2.2-14.4-4-22.5c11.8,5.5,24.4,6.3,35,4.8c9.5,14.6,42.7,60.4,91.8,77.5C1255.8,1113.7,1244.9,1117.9,1230.6,1118.7
			L1230.6,1118.7L1230.6,1118.7z"/>
		<path id="path159" class="st0" d="M1320.5,1100.7c-69.9,8.8-120.3-52-134.9-72.2c5-1.9,8.8-4.2,10.9-6.4c16,3.7,29.6,0.5,40-4.7
			c14.6,15.9,56.7,55.6,119.4,64.2C1348,1090.5,1334.7,1098.9,1320.5,1100.7z"/>
		<path id="path161" class="st0" d="M1354.2,1065.9c-53.5-9.3-91.8-41.5-106.1-55.5c4.2-3.1,7.3-6.1,9.4-8.4
			c18.7,2.3,32.8-2,43.3-8.2c17.7,11.8,74.5,41.7,140.6,42.9C1422.1,1063.2,1394.5,1072.9,1354.2,1065.9z"/>
		<path id="path163" class="st0" d="M1453.2,1021.5c-68.8,2.5-125.1-26.6-141.5-36.1c8.7-8.3,12.8-16.6,13.3-17.9
			c13.1-2,23.8-6.3,32.2-11.6c10.6,4.2,95.2,35.2,190.5,15.2C1533.5,1002.9,1501.7,1019.8,1453.2,1021.5z"/>
		<path id="path165" class="st0" d="M1585.1,944.9c-91.4,34.8-187.4,10.5-215.6,1.7c12.8-12.1,18-25.2,19.1-28.2
			c7.1-2.9,13.2-6.6,18.6-10.8c71.6,7.4,170.3,0.7,247.2-41.1C1650.3,904.3,1623.4,930.3,1585.1,944.9L1585.1,944.9z"/>
		<path id="path167" class="st0" d="M1668.1,841c-72.8,48.9-174.1,60.7-249.4,55c10.4-12.8,15.9-28.1,18.7-42.9
			c83.2-7.1,203.3-42.5,277.6-99.9C1717.4,771.9,1714.9,809.5,1668.1,841z"/>
		<path id="path169" class="st0" d="M1719.3,730.8c-64.5,56.5-182.5,97.7-269.1,108.3c19-18.5,22.2-40.9,22.8-48.9
			c131.9-41,229.9-107.3,275.1-147.6C1754.7,660.8,1759.3,695.7,1719.3,730.8z"/>
		<path id="path171" class="st0" d="M1752.8,618.5c-47.6,46-199.5,161.5-416.4,187.8l-12.9-27.8c163.6-11.7,341.2-101.8,445.1-207.6
			C1772.1,581.7,1770.1,601.9,1752.8,618.5z"/>
	</g>
	<g id="taeguk">
		<path id="path174" class="st6" d="M954,1140.5c-45.1,0-84.8,23-108.1,57.9c-19.9,29.9-11.9,70.2,18.1,90.1
			c29.8,19.9,70.2,11.8,90.1-18c19.9-29.9,60.2-38,90.1-18.1c29.8,19.9,37.9,60.3,18,90.2c13.8-20.7,21.8-45.4,21.8-72.1
			C1084,1198.7,1025.8,1140.5,954,1140.5L954,1140.5z"/>
		<path id="path176" class="st2" d="M1044.1,1252.4c-29.9-19.9-70.2-11.8-90.1,18.1c-19.9,29.9-60.3,37.9-90.1,18
			c-29.9-19.9-38-60.2-18.1-90.1c-13.8,20.6-21.8,45.4-21.8,72.1c0,71.8,58.2,130,130,130c45.1,0,84.8-22.9,108.1-57.8
			C1082,1312.7,1074,1272.3,1044.1,1252.4L1044.1,1252.4z"/>
	</g>
</g>
<g>
	<path class="st1" d="M418,357.9c21.1,23.9,38.7,39.2,52.6,45.9c12.3,5.9,23.6,5.8,33.9-0.4l15.7,17.7c-9.2,6.3-18.7,9.9-28.7,10.7
		c-10.2,0.7-20.2-1.3-30.1-6.3c3.5,10.4,4,21,1.5,31.6c-2.3,9.8-6.7,18.7-13.3,26.5L434.1,466c7.4-9.6,9-21,4.6-34.1
		c-4.8-14.8-17.8-34.1-38.8-57.9L418,357.9z M483.1,347.5L459.7,321l17.8-15.8l95.6,108L555.3,429l-58.2-65.8l-23,20.4l-14-15.8
		L483.1,347.5z"/>
	<path class="st1" d="M717.7,252.5l-55,20.8l-6.9-18.3L790,204.1l6.9,18.3l-54.8,20.8l4.2,11.1l-24.5,9.3L717.7,252.5z M779,256
		l-102.8,39l-6.8-17.8l125.1-47.4l14.9,39.3l-102.8,39l2,5.4l102.8-39l6.8,17.9l-114.4,43.4c-3.7,1.4-6.7,1.6-9,0.7
		c-2.5-1.1-4.5-3.9-6.2-8.3l-10.5-27.6l102.8-39L779,256z M733.9,171.9c11.3,3.8,19.1,11.4,23.4,22.7c3.9,10.2,2.6,20.6-3.9,31.1
		c-5.8,9.7-13.9,16.5-24.2,20.4c-10.5,4-21.2,4.3-32.1,1c-11.7-3.6-19.5-10.5-23.4-20.8c-4.3-11.4-3.5-22.2,2.3-32.5
		c5.5-9.7,14-16.7,25.4-21C712.5,168.6,723.4,168.3,733.9,171.9z M695.9,202.4c-2.3,4.8-2.3,10-0.2,15.6c1.9,5.1,5.3,8.7,10.3,10.9
		c5.1,2.1,10.7,2.1,16.6-0.1c5.7-2.2,9.7-5.7,12.2-10.8c2.3-5,2.5-10,0.6-15c-2.1-5.6-5.7-9.4-10.7-11.5s-10.4-2-16.2,0.2
		C702.5,193.9,698.3,197.5,695.9,202.4z"/>
	<path class="st1" d="M1038.3,123.6v11.3c0,22.2-9.4,38.7-28.2,49.7c-14.2,8.3-32.3,12.8-54.4,13.5v-21.8
		c19.5-0.6,34.4-4.3,44.8-11.3c8.6-5.9,12.8-12.8,12.8-20.9h-55.4v-20.4L1038.3,123.6z M1069,198.9c10.1,8.6,15.2,19.3,15.2,32.3
		c0,12.8-5.1,23.5-15.2,32.1c-9.5,8.1-20.5,12.2-33.1,12.2s-23.6-4.1-32.9-12.2c-9.9-8.6-14.9-19.3-14.9-32.1c0-13,5-23.7,14.9-32.3
		c9.3-8,20.3-12,32.9-12C1048.5,186.9,1059.5,190.9,1069,198.9z M1019.7,215c-5,4.4-7.4,9.8-7.4,16.2c0,6.3,2.5,11.7,7.4,16.2
		c4.7,4.3,10.2,6.4,16.6,6.4c6.3,0,11.8-2.1,16.6-6.4c4.8-4.4,7.3-9.8,7.3-16.2c0-6.5-2.4-11.9-7.3-16.2c-4.6-4.2-10.1-6.3-16.6-6.3
		C1029.9,208.7,1024.4,210.8,1019.7,215z M1065.6,133.1v-9.5h23.8v68.8h-23.8v-11.1h-21.5v-19.1h21.5v-10h-21.5v-19.1L1065.6,133.1z
		"/>
	<path class="st1" d="M1350.5,282.3l-95.4-36.1l7.1-18.8l117.7,44.5l-15.9,42l-95.4-36.1l-2.3,6.2l95.4,36.1l-7.4,19.4l-106.8-40.4
		c-3.7-1.4-6.1-3.2-7.2-5.4c-1.2-2.6-0.9-6.1,0.7-10.6l11.7-31l95.4,36.1L1350.5,282.3z M1308,174.3l4.7-12.3l23.2,8.8l-4.7,12.3
		l29.7,11.2l-7.1,18.8l-28.8-10.9c0.2,4.2,2.1,8.3,5.6,12.4c4.1,4.8,10.4,9.4,19,13.9l-7.7,20.2c-9.1-3.7-16.8-8.8-23.1-15.3
		c-6.3-6.5-10.3-13.4-11.9-20.6c-6.2,4.3-14.3,6.6-24.2,7.1c-9.4,0.6-18.1-0.7-26.3-3.6l7.6-20.1c9.5,2.3,17.2,3,23.1,2
		c5.1-0.8,9.1-2.8,12-5.9l-28.1-10.6l7.1-18.8L1308,174.3z M1390.5,244.2l-7.9,20.9l-22.3-8.4l22.6-59.7l22.3,8.4l-7.2,19.1l18,6.8
		l-7.5,19.8L1390.5,244.2z"/>
	<path class="st1" d="M1605.2,434.9c1.9,13.3-1.5,24.9-10.2,34.7c-8.7,9.9-19.8,14.7-33.3,14.5c-12.5-0.1-23.6-4.4-33.1-12.8
		c-9.6-8.5-15.2-18.9-16.8-31.3c-1.7-13.2,1.8-24.8,10.6-34.6c8.7-9.9,19.7-14.7,33-14.6c12.4,0,23.5,4.3,33.1,12.8
		C1597.9,412,1603.5,422.4,1605.2,434.9z M1588.4,328.4l8.7-9.9l18.6,16.4l-8.7,9.9l22.8,20.1l-13.3,15.1l-21.8-19.2
		c-2,5.1-2.5,10.5-1.5,16c1.1,6.4,4.3,12.9,9.7,19.6l-14.5,16.5c-6.5-6.3-11.2-13.6-14.3-21.9c-3.2-8.6-4.1-16.8-2.6-24.6
		c-7.8,2.3-16.3,2.3-25.6-0.1c-8.6-2.2-16.1-5.8-22.5-10.8L1538,339c7.2,4.4,14,6.7,20.3,6.9c5.4,0.1,10.5-1.2,15.1-4l-20.8-18.3
		l13.3-15.1L1588.4,328.4z M1557.2,414.2c-6.7,0.1-12.2,2.6-16.5,7.5s-6.1,10.7-5.4,17.3c0.6,6.4,3.3,11.7,8,15.9
		c4.8,4.3,10.4,6.3,16.9,6.1c6.7-0.1,12.2-2.6,16.5-7.5s6.1-10.7,5.4-17.3c-0.7-6.3-3.5-11.6-8.3-15.9
		C1569.2,416.2,1563.6,414.1,1557.2,414.2z M1636.7,395.4l15.7-17.7l17.8,15.8l-45.5,51.5l-17.8-15.8l17-19.2l-15.7-13.9l12.9-14.6
		L1636.7,395.4z"/>
</g>
<g>
	<path class="st7" d="M215.8,1030.9c1.4-1,8.8-5.7,8.9-13.4c0.1-4.9-3.1-9.5-8.3-9.6c-7.2,0-10.5,8.5-12.7,12.9
		c-3.9,8.6-5.5,11.2-8.6,14.8c-3,3.5-8.7,8.7-19.6,8.5c-11.4-0.2-17.8-5.9-20.8-9.2c-0.9-0.9-3.1-3.3-4.7-6.6
		c-3.5-6.8-3.7-14.4-3.6-16.8c0-1.9,0.4-9.2,2.9-15.4c2.8-7.2,9.1-13,10.6-14.5l14.3,13.5c-4.9,4.2-10.8,9.3-10.9,16.9
		c-0.1,6,4.2,11.3,10.5,11.4c2,0,3.6-0.5,5.2-1.5c3.8-2.4,6.4-8.3,8-11.8c2.4-4.6,5-9.2,8.1-13.1c2.7-3.2,9.3-10,20.7-9.8
		c7.7,0.1,12.7,3.3,15,4.9c11.4,8.2,11.9,21,11.8,25.5c0,2.1-0.5,8.8-3.5,15c-3,5.9-7.7,9.9-9.3,11.3L215.8,1030.9z"/>
	<path class="st7" d="M244.8,1114.2l-17.8,1.4l-2.6-32.1l-18.1,1.4l2.5,31.4l-17.8,1.4l-2.5-31.4l-19.6,1.6l2.5,32l-18.3,1.5
		l-4.1-51.8l91.5-7.3L244.8,1114.2z"/>
	<path class="st7" d="M258.3,1188.1c-0.2,5.2-1.2,17.5-10.2,28.8c-3.8,4.7-13.2,13.9-29.2,17c-3.6,0.7-11,1.9-20.3,0
		c-20.1-4-32-19.2-35.9-38.6c-0.9-4.6-3.3-18.4,3.1-31.9c3.5-7.3,12.5-21.2,33.4-25.3c3.4-0.7,11.5-2,21-0.2
		c19.5,3.7,33.2,19,37,38.1C257.6,1177.9,258.5,1182.8,258.3,1188.1z M229.1,1164c-3.4-2.9-12.4-9.1-25-6.5c-2,0.4-6.5,1.4-11.2,4.6
		c-10.4,6.8-14,18.8-11.7,30.7c1.8,8.9,5.9,13.3,8.9,15.7c7,5.8,16.5,7.5,25.1,5.8c3.4-0.7,11.6-2.8,17.8-10.5
		c2.6-3.2,7.9-11.8,5.5-23.2C238.1,1177.7,236,1169.6,229.1,1164z"/>
	<path class="st7" d="M275.9,1259.6l-53.7,18.2c-4.6,1.5-8.7,3.1-11.5,7.3c-1.8,2.8-3.9,8.3-1.3,16.1c3.6,10.7,11.5,12,16,11.6
		c1.9-0.1,3.8-0.6,7.4-1.7l54.3-18.4l6.3,18.5l-48.4,16.4c-9.6,3.1-19.2,6.1-29.5,3.2c-15.9-4.5-21.7-19.9-23.3-24.5
		c-4.5-13.3-3.5-29.4,8-39c4.6-3.9,9.7-5.8,15.1-7.7l54.3-18.4L275.9,1259.6z"/>
	<path class="st7" d="M312.1,1352.7l-66.8,31.2l13.3,28.4l-16.4,7.7l-21.8-46.5l83.1-38.9L312.1,1352.7z"/>
	<path class="st7" d="M345.6,1490.1c-3.4,4.6-6.7,9.3-10.3,13.9c-1.7,2.1-3.4,4.2-5.2,6.2c4.4-1.5,8.6-2.9,13-4.4
		c4.7-1.4,9.5-2.7,14.3-4.1l36.9-10.3L406,1508l-67.6,63.4l-11.1-15.9l33-29.9c3.3-2.8,6.5-5.7,9.9-8.4c2.5-1.9,5-3.7,7.6-5.5
		c-7.7,2.7-15.5,5.1-23.2,7.4l-44.1,12.4l-7.2-10.2l28.1-40.1c2.3-3.3,4.6-6.6,7.2-9.7c1.7-2.3,3.6-4.4,5.5-6.7
		c-2.9,2-5.7,3.9-8.7,5.8c-3.8,2.2-7.8,4.3-11.7,6.5l-37.2,20.3l-11-15.6l82.5-42.2l11.8,16.8L345.6,1490.1z"/>
	<path class="st7" d="M460.2,1569.2l-13.2,11.9l-21.6-23.9l-13.5,12.2l21.1,23.4l-13.2,11.9l-21.1-23.4l-14.6,13.2l21.5,23.8
		l-13.6,12.3l-34.8-38.6l68.1-61.5L460.2,1569.2z"/>
	<path class="st7" d="M511.9,1618.2l-12,12.9l-14.4-13.4L435,1672l-14.6-13.5l50.3-54.1l-14.4-13.4l12.2-13.1L511.9,1618.2z"/>
	<path class="st7" d="M542.4,1642.5c2,1.5,3.8,2.9,5.7,4.5c7.6,6.3,13.9,14,12.9,24.7c-0.5,7.3-4.5,12.8-6,14.8
		c-5.1,6.6-13.1,11.7-21.8,11c-3.1-0.2-4.9-0.8-10.3-3.3l-2.8,47.1l-18.7-14.4l4.4-45.5l-23.6,30.7l-15.3-11.8l56-72.7L542.4,1642.5
		z M513.9,1671.3l5.7,4.4c4.3,3.2,8.8,6.1,14.3,3.8c1.2-0.5,3.3-1.5,5.3-4.1c0.8-1,2.8-3.8,2.5-7.6c-0.3-5.2-4-8.5-7.7-11.5
		l-5.4-4.1L513.9,1671.3z"/>
	<path class="st7" d="M634.6,1703.4c3.8,3.6,12.2,12.5,14.6,26.8c1,6,1.5,19.1-6.8,33.1c-1.9,3.1-5.9,9.5-13.5,15.1
		c-16.4,12.3-35.7,11-52.7,0.9c-4-2.4-15.9-9.9-21.7-23.6c-3.1-7.5-7.4-23.4,3.5-41.8c1.8-3,6.2-9.9,13.9-15.8
		c15.8-12.1,36.3-12,53.1-2C626.6,1697.1,630.8,1699.7,634.6,1703.4z M597.2,1708.9c-4.4,0.6-15,3.2-21.5,14.3
		c-1.1,1.8-3.3,5.8-4,11.4c-1.9,12.3,4.6,23,15,29.2c7.8,4.6,13.8,4.4,17.7,3.8c9-1.3,16.6-7.3,21.1-14.9c1.8-3,5.7-10.5,4-20.3
		c-0.6-4-3.5-13.7-13.6-19.6C613.4,1711.5,605.9,1707.7,597.2,1708.9z"/>
	<path class="st7" d="M705,1740.2c2.4,1.1,4.6,2.1,7,3.2c8.7,4.4,15.8,10.2,17.9,20.3c0.7,3.5,1.3,9.7-2.3,17.7
		c-1.7,3.9-6.1,12.1-16.3,15.8c-9.7,3.6-18.8-0.4-27.7-4.3l-6.1-2.7l-14.1,31.8l-18.2-8.1l37.3-83.9L705,1740.2z M684.5,1774.9
		l7.2,3.2c2.3,1,4,1.8,6.3,2.1c7.5,1.1,10.7-4.5,11.7-6.8c3.2-7.1-0.4-11.7-2.7-13.6c-1.2-0.8-2.6-1.7-5.5-3l-7.6-3.4L684.5,1774.9z
		"/>
	<path class="st7" d="M806.2,1776.2c4.5,2.6,14.8,9.3,20.6,22.6c2.4,5.6,6,18.1,1.2,33.8c-1.1,3.5-3.5,10.6-9.5,17.9
		c-13,15.9-32.1,19.2-51,13.4c-4.5-1.4-17.8-5.8-26.7-17.8c-4.8-6.5-12.8-21-6.5-41.4c1-3.4,3.7-11.1,9.8-18.6
		c12.5-15.5,32.4-20.3,51.1-14.6C796.9,1772,801.6,1773.6,806.2,1776.2z M771.1,1790.6c-4.2,1.6-13.9,6.6-17.5,19
		c-0.6,2-1.8,6.4-1.2,12c1.1,12.4,10,21.2,21.5,24.8c8.7,2.7,14.5,1,18.1-0.5c8.4-3.4,14.4-11,16.9-19.4c1-3.4,3-11.6-0.9-20.7
		c-1.6-3.7-6.7-12.5-17.9-15.8C787.5,1789.2,779.4,1787.2,771.1,1790.6z"/>
	<path class="st7" d="M878.7,1794.4l-13.2,72.5l30.8,5.6l-3.2,17.8l-50.5-9.2l16.5-90.3L878.7,1794.4z"/>
	<path class="st7" d="M935.8,1895.3l-19.9-2.2l10.1-91.2l19.9,2.2L935.8,1895.3z"/>
	<path class="st7" d="M1020.2,1808.4l-0.7,17.7l-19.6-0.8l-3.1,74l-19.9-0.8l3.1-73.8l-19.6-0.8l0.7-17.9L1020.2,1808.4z"/>
	<path class="st7" d="M1073.2,1806.4l42.2,89.8l-21.6,1.1l-8.1-18.2l-38,1.9l-5.8,18.9l-21.3,1.1l31.4-93.5L1073.2,1806.4z
		 M1078.3,1862.1c-2.5-6.1-5.2-12.2-7.7-18.2c-4.7-11.6-5.8-14.5-7-20.9c-0.2,1.8-0.3,3.8-0.6,5.6c-0.8,4.5-3,12-4.4,16.5
		c-1.8,6.1-3.6,12.2-5.5,18.2L1078.3,1862.1z"/>
	<path class="st7" d="M1140.5,1799.6l38,37.8c9.7,9.8,13.3,14.5,17.3,20.2c-1.5-5.4-3-10.8-4.1-16.3c-1-4.1-1.7-8.1-2.6-12.2
		l-6.9-36.8l18.4-3.3l16,90.4l-17.5,3.1l-39.4-39.4c-3.5-3.5-7.1-7.1-10.3-10.7c-1.8-2.1-3.7-4.2-5.5-6.3c0.9,3.7,2,7.3,2.7,10.9
		c0.7,3.3,1.4,6.5,2.1,9.8l8.6,43.1l-18.6,3.3l-16-90.4L1140.5,1799.6z"/>
	<path class="st7" d="M1283.7,1763.9c2.5-0.9,4.8-1.7,7.3-2.4c9.4-2.8,18.5-3.5,26.9,2.5c2.9,2,7.5,6.2,10.5,14.5
		c1.4,4,3.9,13-1,22.7c-4.6,9.3-13.9,12.6-23.1,15.9l-6.3,2.2l11.6,32.9l-18.8,6.6l-30.5-86.5L1283.7,1763.9z M1292.6,1803.2
		l7.5-2.6c2.3-0.8,4.2-1.5,6-2.8c6.2-4.4,4.7-10.6,3.8-12.9c-2.6-7.4-8.3-8.2-11.2-8c-1.4,0.2-3.1,0.5-6.1,1.6l-7.8,2.8
		L1292.6,1803.2z"/>
	<path class="st7" d="M1382,1720.5c5.1-1.2,17.2-3.4,30.5,2.3c5.6,2.5,16.8,9.1,24.1,23.7c1.6,3.3,4.7,10.1,5.4,19.5
		c1.5,20.5-10.1,36-27.8,44.8c-4.2,2.1-16.9,8-31.6,5.4c-8-1.4-23.7-6.5-33.2-25.6c-1.6-3.1-5-10.6-5.7-20.2
		c-1.6-19.8,9.6-37,27.1-45.7C1372.3,1723.8,1376.8,1721.7,1382,1720.5z M1366.3,1755c-1.9,4-5.5,14.3,0.3,25.8
		c0.9,1.9,3.1,5.9,7.4,9.6c9.3,8.3,21.8,8.6,32.7,3.2c8.2-4,11.2-9.2,12.8-12.8c3.7-8.2,2.9-17.8-1-25.8
		c-1.6-3.1-5.8-10.5-14.8-14.4c-3.7-1.6-13.4-4.5-23.8,0.8C1377.2,1742.7,1370,1746.9,1366.3,1755z"/>
	<path class="st7" d="M1447.2,1683.9l40.1,61.8l26.3-17.1l9.8,15.2l-43.1,28l-50-77L1447.2,1683.9z"/>
	<path class="st7" d="M1558,1718.1l-16,12l-55.2-73.3l16-12L1558,1718.1z"/>
	<path class="st7" d="M1589.2,1606c-4.3,0-15.7,0-25.3,8.5c-1.7,1.5-5.6,5.2-7.6,11c-2,6-3,17.8,7.5,29.5c1.4,1.6,4.3,4.7,9,7.3
		c5.6,3.2,18,7.8,31-3.7c1-0.9,2.7-2.4,4.7-5.1c1.4-1.9,4.6-7.2,5.9-12.5c0.4-1.7,0.8-3.6,1.2-5.5l14.1,16.1c-2,4-6.1,13.5-15.6,22
		c-3.4,3-13.7,11.6-28.1,11.9c-7.8,0.2-23.8-2-37.6-17.5c-5.4-6.1-10.4-14.4-12.5-22.5c-0.5-2.1-1.3-5.8-1.2-11.1
		c0-6.3,1.3-12.6,4.2-18.2c3.6-7.1,9-12.2,11-13.9c2.2-2,8.7-7.2,16.9-10.7c2.5-1,5-1.8,7.4-2.6L1589.2,1606z"/>
	<path class="st7" d="M1621.8,1531.8l13.2,12l-21.7,23.8l13.5,12.3l21.2-23.3l13.2,12l-21.2,23.3l14.5,13.2l21.6-23.7l13.5,12.3
		l-35,38.4l-67.8-61.8L1621.8,1531.8z"/>
	<path class="st7" d="M1686,1444.1l97.5,18.6l-11.8,18.1l-19.5-4.2l-20.8,31.9l11.9,15.8l-11.7,17.8l-57.1-80.3L1686,1444.1z
		 M1734.1,1472.7c-6.4-1.6-12.9-3-19.3-4.5c-12.2-3-15.2-3.9-21-6.6c1.4,1.2,2.9,2.5,4.2,3.8c3.1,3.3,7.9,9.5,10.8,13.2
		c3.9,5,7.7,10,11.5,15.1L1734.1,1472.7z"/>
	<path class="st7" d="M1764.9,1357.4c-1.1,0.2-2.6,0.3-5.1,1.3c-3.9,1.4-11.6,5.3-16.4,15.3c-2.9,6-3.7,12-2.1,18.5
		c3.1,12.1,12.8,17.1,16.5,18.9c2.8,1.4,10,4.9,19,3.7c4.8-0.7,15-3.4,20.7-15.2c5-10.2,2.6-18.4,0.7-22.2c-1.2-2.5-2.9-4.4-4.5-6.5
		l-10.7,22l-15.4-7.5l20.3-41.3c4.7,2.3,17.9,8.3,25.4,22.4c9.7,18.3,2.9,35.6-0.1,41.7c-1.5,3.2-3.9,6.8-6,9.5
		c-3.8,4.9-12.3,14.2-28.3,16.5c-6.1,0.9-16.1,1.3-29.3-5.2c-5.5-2.7-8.8-5-10.8-6.7c-2.8-2.2-10-8.8-14.1-18.6
		c-0.5-1.4-1.7-4.8-2.5-8.8c-1.9-10.3,0.2-20.2,4.7-29.5c6.2-12.7,14.2-18.5,19.3-21.4c4.3-2.5,8.4-3.9,10.1-4.3
		c2.8-0.8,4.2-1,7.1-1.3L1764.9,1357.4z"/>
	<path class="st7" d="M1772.1,1260.4l16.8,6l-10.8,30.4l17.2,6.1l10.5-29.7l16.8,6l-10.5,29.7l18.5,6.6l10.7-30.3l17.3,6.1l-17.4,49
		l-86.5-30.7L1772.1,1260.4z"/>
	<path class="st7" d="M1783.3,1220.9l49.6-20.2c12.8-5.1,18.6-6.5,25.3-8.1c-5.6-0.7-11.1-1.5-16.6-2.6c-4.1-0.7-8.2-1.6-12.3-2.4
		l-36.6-8l4.2-18.2l89.5,20.5l-4,17.4l-51.6,21c-4.6,1.9-9.3,3.7-13.9,5.4c-2.6,0.9-5.3,1.7-7.9,2.6c3.7,0.6,7.5,1.1,11.1,1.7
		c3.3,0.6,6.5,1.2,9.8,1.9l43,8.9l-4.2,18.4l-89.5-20.5L1783.3,1220.9z"/>
	<path class="st7" d="M1833.7,1075.6c-3.2,2.9-11.6,10.5-13,23.3c-0.2,2.2-0.7,7.6,1.7,13.3c2.5,5.8,9.7,15.2,25.4,16.9
		c2.1,0.2,6.3,0.6,11.6-0.6c6.3-1.4,18.6-6.4,20.4-23.6c0.1-1.3,0.4-3.6,0.1-6.9c-0.3-2.4-1.5-8.4-4.1-13.3
		c-0.9-1.5-1.9-3.2-2.9-4.9l21.3,2.4c1.2,4.3,4.6,14.1,3.3,26.8c-0.5,4.5-2.3,17.8-12.8,27.7c-5.7,5.4-19,14.6-39.6,12.3
		c-8.1-0.9-17.4-3.7-24.3-8.2c-1.8-1.2-4.9-3.4-8.4-7.4c-4.2-4.6-7.5-10.2-9.1-16.3c-2.1-7.7-1.5-15.1-1.2-17.7
		c0.3-3,1.6-11.2,5.3-19.3c1.2-2.4,2.5-4.7,3.8-6.9L1833.7,1075.6z"/>
	<path class="st7" d="M1808.1,1040.9l34.8-17.9l-35.4-17.6l-0.4-22.4l50.4,29.7l41.9-0.7l0.3,20l-41.1,0.7l-50.2,31.2L1808.1,1040.9
		z"/>
</g>
<g>
	<g>
		<line class="st8" x1="443.3" y1="668.1" x2="443.3" y2="668.1"/>
		<path class="st9" d="M463.2,637.5C589.8,453.9,799.5,342.9,1024,342.9c230.6,0,445.7,117.1,571,309.8"/>
		<line class="st8" x1="1604.7" y1="668.1" x2="1604.7" y2="668.1"/>
	</g>
</g>
<g>
	<g>
		<line class="st8" x1="1704.9" y1="1006.2" x2="1704.9" y2="1006.2"/>
		<path class="st10" d="M1704.9,1042.4c-9.9,365.3-313.4,662.7-680.9,662.7c-373.6,0-681-307.4-681.1-681"/>
		<line class="st8" x1="343.1" y1="1006.2" x2="343.1" y2="1006.2"/>
	</g>
</g>
</svg>
