<?xml version="1.0" encoding="utf-8"?>
<!-- Generator: Adobe Illustrator 26.4.1, SVG Export Plug-In . SVG Version: 6.00 Build 0)  -->
<svg version="1.1" id="Layer_1" xmlns="http://www.w3.org/2000/svg" xmlns:xlink="http://www.w3.org/1999/xlink" x="0px" y="0px"
	 viewBox="0 0 631 83.3" style="enable-background:new 0 0 631 83.3;" xml:space="preserve">
<style type="text/css">
	.st0{fill:#FFFFFF;}
</style>
<path class="st0" d="M25.1,0c-3,0-5.8,0.6-8.3,1.7C10.2,4.6,5.7,10.8,5.6,18.2c0.1,9.2,8.7,15.4,17,21.4c2.3,1.6,4.7,3.4,6.8,5.1
	c6.8,5.5,10,11,10,17v0.4c0,6.6-4.8,10.6-10,12.5c-2.4,0.9-4.9,1.3-7,1.3c-2.8,0-5.1-0.5-7.2-1.3c-2.2-0.9-4-2-5.6-3.4
	c0,0-0.1-0.1-0.1-0.1c0,0-0.1-0.1-0.1-0.1C4.7,67,1.1,62.2,0,59.9v14.9l0.8,0.5c0.2,0.1,0.5,0.3,0.9,0.6c1.8,1.2,5.1,3.4,9.9,5
	c3.1,1,6.7,1.7,11,1.7c3.7,0,7-0.6,9.9-1.7c3.9-1.4,7.1-3.6,9.6-6.3c3.9-4.2,6-9.5,6-14.8c0-7.3-2.6-13.8-7.6-19.3
	c-3.7-4-8.2-7.1-12.6-10c-7-4.8-13.3-8.7-13.3-15.1v0c0-0.5,0-1,0.1-1.4c0.8-4.6,5.6-7.5,10.2-7.5c2.3,0,4.3,0.4,6,1v0
	c0,0,0.1,0,0.1,0.1h0c3.6,1.3,6.9,4.3,10.3,7.6V3.7l-3.3-1c-1.1-0.3-2.2-0.7-3.3-1C31.6,0.7,28.4,0,25.1,0z M206.6,0
	c-23.6,0-41.3,17.6-41.3,41h0c0,30.3,24.9,41.5,40.6,41.5c7.9,0,15.3-3.2,20.6-5.6c2.8-1.2,5.5-2.4,6.7-2.4h1.7v-15
	c0-3.3,1.8-6,3.8-8.5h-18.8c2.6,2.2,4.6,4.6,5.2,7.6c0,0,0,0.1,0,0.1c0,0.1,0,0.3,0.1,0.4c0,0.1,0,0.3,0,0.4v0
	c0.1,1.1,0.1,2.5,0.1,4.6v4.8l-0.7,0.5c-3.4,2.5-9.5,6.8-19.6,6.8c-16.9,0-28.7-14.7-28.7-35.7v-0.7c0-19.4,12.6-33.4,30-33.4
	c5.1,0,8.6,0.9,11.1,2.2c1.1,0.6,2.1,1.4,3,2.3c2.9,2.8,5.2,6.9,6.1,11.6l0.2-0.6l5.8-18.2h-2.3c-2.1,0-5-0.7-8.4-1.4
	C217.3,1.2,212,0,206.6,0L206.6,0z M96.1,1.7c2.7,2.3,4.7,5.2,5.1,8.3c0.2,1.3,0.2,3,0.2,5.9v50.7c0,2.9,0,4.6-0.2,5.9
	c-0.4,3.2-2.3,6-5.1,8.4h20.7c-2.8-2.4-4.9-5.5-5.1-8.9c-0.1-1.2-0.1-2.8-0.1-5.4V15.9c0-2.5,0-4.2,0.1-5.4c0.3-3.4,2.3-6.4,5.1-8.9
	H96.1L96.1,1.7z M277,1.7l3.4,1.5c7.3,3.3,10.9,6.5,13.7,10.3v55.8c0,1.2,0,2.2-0.1,3c0,0.6-0.1,1.1-0.1,1.5
	c-0.1,0.7-0.3,1.4-0.6,2.1c-0.9,1.9-2.3,3.3-4.1,4.9l0,0h17.3c-2-1.7-3.5-3.1-4.3-5.3c-0.2-0.5-0.3-1-0.4-1.6
	c-0.1-0.5-0.1-1.2-0.2-2c0-0.9-0.1-1.8-0.1-2.7V21.1l55,62.1v-70c0-1.1,0-1.9,0-2.7c0.1-0.9,0.1-1.7,0.2-2.3
	c0.1-0.5,0.3-1.1,0.5-1.6c0.9-2,2.4-3.4,4.2-5l-17.4,0l0,0c1.8,1.5,3.3,3,4.2,4.9c0.2,0.5,0.4,1.1,0.5,1.7c0,0.1,0,0.3,0.1,0.5
	c0.1,0.4,0.1,1,0.1,1.6c0,0.8,0.1,1.7,0.1,2.9v46.7L298,1.7H277L277,1.7z M410.4,1.7c2.7,2.3,4.6,5.2,5,8.3c0.2,1.3,0.2,3,0.2,5.9
	v50.7c0,2.9,0,4.6-0.2,5.9c-0.4,3.2-2.4,6-5.1,8.4h20.7c-2.8-2.4-4.8-5.5-5.1-8.9c-0.1-1.2-0.1-2.8-0.1-5.4V15.9
	c0-2.5,0-4.2,0.1-5.4c0.3-3.4,2.3-6.4,5.1-8.9H410.4z M477.9,1.7c5.4,1.8,8,6.4,8.4,8.9c0.3,1.5,0.3,3.2,0.3,5.4v50.7
	c0,2.2,0,3.9-0.3,5.4c-0.3,2.5-2.9,7.1-8.4,8.9H528l8.1-22.1c-3.4,3.8-6.9,7.1-10.4,9.7c-0.5,0.4-1.1,0.8-1.6,1.2
	c-3.5,2.4-8.7,4.5-17.1,4.5c-9.8,0-10.2-2.6-10.2-10.6V40.4h19.1c3.5,0.1,6.7,2,8.9,4.6V29.4c-2.2,2.7-5.3,4.5-8.9,4.6h-19.1V8.2
	h16.6c5.7,0,9.6,3.8,12.1,8.5v-15L477.9,1.7L477.9,1.7z M576.3,1.7c2.7,2.3,4.4,5.3,4.7,8.5c0.2,1.2,0.2,3,0.2,5.7v50.7
	c0,5.7,0,8-4.9,11.2l-4.6,3.1h51.1l8.1-22.3l0,0c-3.3,3.8-6.9,7.2-10.9,10.3c-0.2,0.2-0.4,0.3-0.7,0.5c-0.2,0.1-0.4,0.3-0.6,0.4
	c-3.5,2.4-8.8,4.3-17.1,4.3c-9.8,0-10.3-2.6-10.3-10.6V15.9c0-2.7,0-4.4,0.2-5.6C592,7,594,4,596.7,1.7H576.3L576.3,1.7z"/>
</svg>
