<?xml version="1.0" encoding="utf-8"?>
<!-- Generator: Adobe Illustrator 26.4.1, SVG Export Plug-In . SVG Version: 6.00 Build 0)  -->
<svg version="1.1" xmlns="http://www.w3.org/2000/svg" xmlns:xlink="http://www.w3.org/1999/xlink" x="0px" y="0px"
	 viewBox="0 0 595.3 841.9" style="enable-background:new 0 0 595.3 841.9;" xml:space="preserve">
<style type="text/css">
	.st0{fill:none;stroke:#77B4E2;stroke-width:5;stroke-miterlimit:10;}
	.st1{fill:none;stroke:#0A8A45;stroke-width:5;stroke-miterlimit:10;}
	.st2{fill:none;stroke:#C6AE2F;stroke-width:5;stroke-miterlimit:10;}
	.st3{fill:none;stroke:#7A55A2;stroke-width:5;stroke-miterlimit:10;}
	.st4{fill:none;stroke:#3B93C5;stroke-width:5;stroke-miterlimit:10;}
	.st5{fill:#FFFFFF;stroke:#000000;stroke-miterlimit:10;}
	.st6{fill:#F8F9FB;}
	.st7{fill:#E8EDF2;stroke:#E2E7EC;stroke-width:3;stroke-miterlimit:10;}
	.st8{fill:url(#SVGID_1_);}
	.st9{fill:#CCCCCB;}
	.st10{fill:#FFFFFF;}
	.st11{fill:#666766;}
	.st12{font-family:'NotoSansKR-Regular-KSCpc-EUC-H';}
	.st13{font-size:6.5661px;}
	.st14{font-family:'NotoSansKR-Bold-KSCpc-EUC-H';}
	.st15{font-size:9.1925px;}
	.st16{fill:#010101;fill-opacity:0;}
	.st17{fill:#010101;}
	.st18{fill:none;stroke:#447ABE;stroke-width:3;stroke-miterlimit:10;}
	.st19{fill:#437ABE;}
	.st20{fill:#808080;}
	.st21{font-size:5.2529px;}
	.st22{fill-opacity:0;}
	.st23{font-size:4.5962px;}
</style>
<g id="인천1호선">
	<polyline class="st0" points="74.1,343.1 74.1,518 15.2,576.9 0,576.9 	"/>
</g>
<g id="_x32_호선">
	<line class="st1" x1="362.4" y1="821.9" x2="382.4" y2="847.8"/>
</g>
<g id="_x39_호선">
	<polyline class="st2" points="106.7,0 106.7,211.9 303.9,409.1 463.9,409.1 526.6,471.7 526.6,681.8 595.3,681.8 	"/>
</g>
<g id="_x35_호선">
	<polyline class="st3" points="240.1,0 240.1,670 362.4,821.9 573.6,821.9 604,841.5 	"/>
</g>
<g id="공항철도">
	<polyline class="st4" points="0,331.3 11.1,343.1 239.4,343.1 303.9,278.6 599.6,278.6 	"/>
</g>
<g id="지하철_역">
	<circle class="st5" cx="362.4" cy="821.9" r="7"/>
	<circle class="st5" cx="240.1" cy="343.1" r="7"/>
	<circle class="st5" cx="74.1" cy="343.1" r="7"/>
	<circle class="st5" cx="439.5" cy="821.9" r="4.1"/>
	<circle class="st5" cx="291.3" cy="734.4" r="4.1"/>
	<circle class="st5" cx="240.1" cy="667.7" r="4.1"/>
	<circle class="st5" cx="240.1" cy="603.3" r="4.1"/>
	<circle class="st5" cx="240.1" cy="526.5" r="4.1"/>
	<circle class="st5" cx="240.1" cy="424.6" r="4.1"/>
	<circle class="st5" cx="74.1" cy="433" r="4.1"/>
	<circle class="st5" cx="74.1" cy="482.6" r="4.1"/>
	<circle class="st5" cx="44.8" cy="548.5" r="4.1"/>
	<circle class="st5" cx="11.8" cy="343.1" r="4.1"/>
	<circle class="st5" cx="240.1" cy="161.4" r="4.1"/>
	<circle class="st5" cx="240.1" cy="104.3" r="4.1"/>
	<circle class="st5" cx="106.7" cy="104.3" r="4.1"/>
	<circle class="st5" cx="305.3" cy="408.3" r="4.1"/>
	<circle class="st5" cx="383.4" cy="408.3" r="4.1"/>
	<circle class="st5" cx="465" cy="408.3" r="4.1"/>
	<circle class="st5" cx="526.9" cy="471.2" r="4.1"/>
	<circle class="st5" cx="526.9" cy="539.2" r="4.1"/>
	<circle class="st5" cx="526.9" cy="589.1" r="4.1"/>
	<circle class="st5" cx="526.9" cy="630.1" r="4.1"/>
	<circle class="st5" cx="526.9" cy="684.1" r="4.1"/>
	<circle class="st5" cx="564.6" cy="684.1" r="4.1"/>
	<circle class="st5" cx="595" cy="684.1" r="4.1"/>
	<circle class="st5" cx="518.4" cy="821.9" r="4.1"/>
	<circle class="st5" cx="574.5" cy="821.9" r="4.1"/>
</g>
<g id="아이폰">
	<g>
		<g>
			<path class="st6" d="M426.9,693.8h-55.7c-26.5,0-48-21.5-48-48V424.4c0-26.5,21.5-48,48-48h55.7c26.5,0,48,21.5,48,48v221.4
				C474.9,672.3,453.4,693.8,426.9,693.8z"/>
			<g>
				
					<image style="overflow:visible;" width="640" height="1280" xlink:href="iphone.png"  transform="matrix(0.254 0 0 0.254 317.8385 372.5441)">
				</image>
				<g>
					<path class="st7" d="M453.7,483.9H348.3c-5.8,0-10.5-4.7-10.5-10.5v-54.8c0-5.8,4.7-10.5,10.5-10.5h105.5
						c5.8,0,10.5,4.7,10.5,10.5v54.8C464.3,479.2,459.6,483.9,453.7,483.9z"/>
					<linearGradient id="SVGID_1_" gradientUnits="userSpaceOnUse" x1="345.9403" y1="435.4941" x2="369.0552" y2="435.4941">
						<stop  offset="0" style="stop-color:#D8D073"/>
						<stop  offset="1" style="stop-color:#FAED23;stop-opacity:0.7"/>
					</linearGradient>
					<path class="st8" d="M363.6,443.3h-12.2c-3,0-5.4-2.4-5.4-5.4v-4.7c0-3,2.4-5.4,5.4-5.4h12.2c3,0,5.4,2.4,5.4,5.4v4.7
						C369.1,440.8,366.6,443.3,363.6,443.3z"/>
					<g>
						<path class="st9" d="M364.1,474.5h-18.6c-0.8,0-1.4-0.6-1.4-1.4v-1.2c0-0.8,0.6-1.4,1.4-1.4h18.6c0.8,0,1.4,0.6,1.4,1.4v1.2
							C365.5,473.8,364.9,474.5,364.1,474.5z"/>
						<path class="st9" d="M376.3,470.3h18.6c0.8,0,1.4,0.6,1.4,1.4v1.2c0,0.8-0.6,1.4-1.4,1.4h-18.6c-0.8,0-1.4-0.6-1.4-1.4v-1.2
							C374.8,471,375.5,470.3,376.3,470.3z"/>
						<path class="st9" d="M425.7,474.5h-18.6c-0.8,0-1.4-0.6-1.4-1.4v-1.2c0-0.8,0.6-1.4,1.4-1.4h18.6c0.8,0,1.4,0.6,1.4,1.4v1.2
							C427.2,473.8,426.5,474.5,425.7,474.5z"/>
						<path class="st9" d="M437.9,470.3h18.6c0.8,0,1.4,0.6,1.4,1.4v1.2c0,0.8-0.6,1.4-1.4,1.4h-18.6c-0.8,0-1.4-0.6-1.4-1.4v-1.2
							C436.5,471,437.1,470.3,437.9,470.3z"/>
					</g>
					
						<image style="overflow:visible;" width="414" height="66" xlink:href="618A9ABE94762664.png"  transform="matrix(0.1268 0 0 0.1268 401.782 428.6344)">
					</image>
				</g>
				<path class="st10" d="M453.7,523.6H346.5c-5.8,0-10.5-4.7-10.5-10.5v-10.7c0-5.8,4.7-10.5,10.5-10.5h107.3
					c5.8,0,10.5,4.7,10.5,10.5v10.7C464.3,518.9,459.6,523.6,453.7,523.6z"/>
				<text transform="matrix(1 0 0 1 345.2107 502.845)" class="st11 st12 st13">결제 금액</text>
				<text transform="matrix(1 0 0 1 345.2107 515.2922)" class="st14 st15">56,000원</text>
				<g>
					<g>
						<rect x="451.3" y="494.9" class="st16" width="7.9" height="7.9"/>
						<path class="st17" d="M455.3,502.8c2.2,0,4-1.8,4-4c0-2.2-1.8-4-4-4c-2.2,0-4,1.8-4,4C451.3,501,453.1,502.8,455.3,502.8z
							 M455.3,502.2c-1.8,0-3.3-1.5-3.3-3.3c0-1.8,1.5-3.3,3.3-3.3c1.8,0,3.3,1.5,3.3,3.3C458.6,500.7,457.2,502.2,455.3,502.2z
							 M453.5,499.4c0.3,0,0.6-0.3,0.6-0.6c0-0.3-0.3-0.6-0.6-0.6c-0.3,0-0.6,0.3-0.6,0.6C452.9,499.2,453.2,499.4,453.5,499.4z
							 M455.3,499.4c0.3,0,0.6-0.3,0.6-0.6c0-0.3-0.3-0.6-0.6-0.6c-0.3,0-0.6,0.3-0.6,0.6C454.7,499.2,455,499.4,455.3,499.4z
							 M457.1,499.4c0.3,0,0.6-0.3,0.6-0.6c0-0.3-0.3-0.6-0.6-0.6c-0.3,0-0.6,0.3-0.6,0.6C456.6,499.2,456.8,499.4,457.1,499.4z"/>
					</g>
				</g>
				<g>
					<circle class="st18" cx="401.8" cy="554.6" r="16.8"/>
					<path class="st19" d="M399.8,563.2c0.6,0,1.2-0.3,1.5-0.9l8.7-13.7c0.2-0.4,0.5-0.8,0.5-1.2c0-0.8-0.8-1.4-1.6-1.4
						c-0.5,0-1,0.3-1.3,0.9l-7.9,12.7l-3.8-4.9c-0.5-0.6-0.9-0.8-1.4-0.8c-0.8,0-1.5,0.7-1.5,1.5c0,0.4,0.2,0.8,0.4,1.2l4.7,5.7
						C398.6,563,399.1,563.2,399.8,563.2z"/>
				</g>
				<text transform="matrix(1 0 0 1 396.3533 585.9856)" class="st20 st12 st13">완료</text>
			</g>
		</g>
		<g>
			<g>
				<rect x="352.6" y="383.3" class="st16" width="6.1" height="6.1"/>
				<path class="st17" d="M353,386.5l2.3,0c0,0,0.1,0,0.1,0.1l0,2.3c0,0.5,0.6,0.6,0.8,0.1l2.4-5.1c0.2-0.5-0.2-0.8-0.6-0.6
					l-5.1,2.4C352.4,386,352.5,386.5,353,386.5z"/>
			</g>
		</g>
		<text transform="matrix(1 0 0 1 335.6921 388.6135)" class="st14 st21">08:53</text>
		<g>
			<g>
				<rect x="447.1" y="381.7" class="st16" width="7.1" height="5.1"/>
				<path class="st17" d="M450.7,386.8c0.1,0,0.1,0,0.2-0.1l0.7-0.7c0,0,0.1-0.1,0-0.2c-0.2-0.3-0.6-0.5-1-0.5c-0.4,0-0.8,0.2-1,0.5
					c0,0,0,0.1,0,0.2l0.7,0.7C450.5,386.8,450.6,386.8,450.7,386.8z M448.9,385.2c0.1,0.1,0.2,0.1,0.2,0c0.4-0.4,1-0.7,1.6-0.7
					c0.6,0,1.2,0.3,1.6,0.7c0.1,0.1,0.1,0.1,0.2,0l0.5-0.5c0,0,0.1-0.1,0-0.2c-0.5-0.6-1.3-1-2.3-1c-1,0-1.8,0.4-2.3,1
					c0,0.1,0,0.1,0,0.2L448.9,385.2z M447.6,383.9c0.1,0.1,0.1,0.1,0.2,0c0.8-0.8,1.8-1.2,2.9-1.2c1.1,0,2.1,0.4,2.9,1.2
					c0.1,0.1,0.1,0.1,0.2,0l0.4-0.4c0.1-0.1,0.1-0.1,0-0.2c-0.7-0.9-2.1-1.5-3.5-1.5c-1.4,0-2.8,0.7-3.5,1.5c0,0.1,0,0.1,0,0.2
					L447.6,383.9z"/>
			</g>
		</g>
		<g>
			<g>
				<rect x="437" y="381.3" class="st16" width="8.4" height="5.4"/>
				<path class="st17" d="M437.3,386.7h0.8c0.2,0,0.3-0.1,0.3-0.3V385c0-0.2-0.1-0.3-0.3-0.3h-0.8c-0.2,0-0.3,0.1-0.3,0.3v1.4
					C437,386.6,437.1,386.7,437.3,386.7z M439.7,386.7h0.8c0.2,0,0.3-0.1,0.3-0.3V384c0-0.2-0.1-0.3-0.3-0.3h-0.8
					c-0.2,0-0.3,0.1-0.3,0.3v2.4C439.3,386.6,439.5,386.7,439.7,386.7z M442,386.7h0.8c0.2,0,0.3-0.1,0.3-0.3v-3.5
					c0-0.2-0.1-0.3-0.3-0.3H442c-0.2,0-0.3,0.1-0.3,0.3v3.5C441.7,386.6,441.8,386.7,442,386.7z M444.3,386.7h0.8
					c0.2,0,0.3-0.1,0.3-0.3v-4.7c0-0.2-0.1-0.3-0.3-0.3h-0.8c-0.2,0-0.3,0.1-0.3,0.3v4.7C444,386.6,444.1,386.7,444.3,386.7z"/>
			</g>
		</g>
		<g>
			<rect x="455.3" y="382.5" class="st22" width="8.1" height="3.7"/>
			<path d="M456.7,386.2h4.3c0.5,0,0.9,0,1.1-0.3c0.3-0.3,0.3-0.7,0.3-1.1V384c0-0.5,0-0.9-0.3-1.1c-0.3-0.3-0.7-0.3-1.1-0.3h-4.3
				c-0.5,0-0.9,0-1.1,0.3c-0.3,0.3-0.3,0.7-0.3,1.1v0.8c0,0.5,0,0.9,0.3,1.1C455.9,386.2,456.3,386.2,456.7,386.2z M456.7,385.8
				c-0.3,0-0.6,0-0.7-0.2c-0.2-0.2-0.2-0.5-0.2-0.7v-0.9c0-0.3,0-0.6,0.2-0.7c0.2-0.2,0.5-0.2,0.8-0.2h4.4c0.3,0,0.6,0,0.7,0.2
				c0.2,0.2,0.2,0.5,0.2,0.7v0.9c0,0.3,0,0.6-0.2,0.7c-0.2,0.2-0.5,0.2-0.7,0.2H456.7z M462.9,385.1c0.2,0,0.5-0.3,0.5-0.7
				c0-0.4-0.3-0.7-0.5-0.7V385.1z M456.5,385.5h4.7c0.2,0,0.3,0,0.4-0.1c0.1-0.1,0.1-0.2,0.1-0.4v-1.2c0-0.2,0-0.3-0.1-0.4
				c-0.1-0.1-0.2-0.1-0.4-0.1h-4.7c-0.2,0-0.3,0-0.4,0.1c-0.1,0.1-0.1,0.2-0.1,0.4v1.2c0,0.2,0,0.3,0.1,0.4S456.3,385.5,456.5,385.5
				z"/>
		</g>
		<text transform="matrix(1 0 0 1 345.9402 416.7668)" class="st12 st23">후불교통카드</text>
		<text transform="matrix(1 0 0 1 443.0867 417.1106)" class="st12 st23">CHECK</text>
	</g>
</g>
</svg>
