<?xml version="1.0" encoding="utf-8"?>
<!-- Generator: Adobe Illustrator 26.4.1, SVG Export Plug-In . SVG Version: 6.00 Build 0)  -->
<svg version="1.1" id="Layer_1" xmlns="http://www.w3.org/2000/svg" xmlns:xlink="http://www.w3.org/1999/xlink" x="0px" y="0px"
	 viewBox="0 0 70.8 104.5" style="enable-background:new 0 0 70.8 104.5;" xml:space="preserve">
<style type="text/css">
	.st0{fill-opacity:0;}
	.st1{fill:#FFFFFF;fill-opacity:0.25;}
	.st2{fill:#FFFFFF;}
</style>
<rect class="st0" width="70.8" height="104.5"/>
<path class="st1" d="M7.1,74V30.6c0-7.3,1.2-8.7,8.4-8.7h34.9c7.1,0,8.4,1.4,8.4,8.7V74c0,7.2-1.2,8.6-8.4,8.6H15.5
	C8.4,82.6,7.1,81.2,7.1,74z"/>
<path class="st2" d="M0,72c0,7.6,3,13.1,8.5,16.2c2.7,1.4,4.2,3.2,5.2,6.5l1.6,5.2c0.9,3.1,3.1,4.6,6.4,4.6h22.6
	c3.4,0,5.4-1.5,6.3-4.6l1.6-5.2c1-3.3,2.5-5.1,5.2-6.5c5.5-3,8.5-8.6,8.5-16.2V32.5c0-7.6-3-13.1-8.5-16.2c-2.7-1.4-4.2-3.2-5.2-6.4
	l-1.6-5.3c-0.8-3.1-3-4.6-6.3-4.6H21.7c-3.3,0-5.5,1.5-6.4,4.6l-1.6,5.3c-0.9,3.2-2.5,5.1-5.2,6.4C3,19.3,0,24.9,0,32.5V72z M7.1,74
	V30.6c0-7.3,1.2-8.7,8.4-8.7h34.9c7.1,0,8.4,1.4,8.4,8.7V74c0,7.2-1.2,8.6-8.4,8.6H15.5C8.4,82.6,7.1,81.2,7.1,74z M64.8,48.8h1.8
	c2.5,0,4.2-1.7,4.2-4.5v-6.6c0-2.8-1.7-4.5-4.2-4.5h-1.8V48.8z"/>
</svg>
