<?xml version="1.0" encoding="utf-8"?>
<!-- Generator: Adobe Illustrator 26.4.1, SVG Export Plug-In . SVG Version: 6.00 Build 0)  -->
<svg version="1.1" id="레이어_1" xmlns="http://www.w3.org/2000/svg" xmlns:xlink="http://www.w3.org/1999/xlink" x="0px"
	 y="0px" viewBox="0 0 235 237.9" style="enable-background:new 0 0 235 237.9;" xml:space="preserve">
<style type="text/css">
	.st0{fill:#FFFFFF;}
	.st1{font-family:'NotoSansKR-Bold-KSCpc-EUC-H';}
	.st2{font-size:33px;}
	.st3{font-family:'Arial-BoldMT';}
	.st4{font-size:10.9309px;}
	.st5{font-size:9.9861px;}
	.st6{font-size:9.1619px;}
</style>
<g>
	<text transform="matrix(1 0 0 1 -1.983643e-04 203.3752)" class="st0 st1 st2">서울대공원대학교</text>
	<text transform="matrix(1 0 0 1 45.2683 222.9137)" class="st0 st3 st4">T</text>
	<text transform="matrix(1 0 0 1 53.3249 222.9137)" class="st0 st3 st4">A</text>
	<text transform="matrix(1 0 0 1 62.9988 222.9137)" class="st0 st3 st4">G</text>
	<text transform="matrix(1 0 0 1 72.7273 222.9137)" class="st0 st3 st4">L</text>
	<text transform="matrix(1 0 0 1 80.6296 222.9137)" class="st0 st3 st4">I</text>
	<text transform="matrix(1 0 0 1 85.5164 222.9137)" class="st0 st3 st4">N</text>
	<text transform="matrix(1 0 0 1 95.6492 222.9137)" class="st0 st3 st4">E</text>
	<text transform="matrix(1 0 0 1 104.2849 222.9137)" class="st0 st3 st4"> </text>
	<text transform="matrix(1 0 0 1 108.6785 222.9137)" class="st0 st3 st4">G</text>
	<text transform="matrix(1 0 0 1 118.407 222.9137)" class="st0 st3 st4">O</text>
	<text transform="matrix(1 0 0 1 128.9343 222.9137)" class="st0 st3 st4">E</text>
	<text transform="matrix(1 0 0 1 137.5691 222.9137)" class="st0 st3 st4">S</text>
	<text transform="matrix(1 0 0 1 145.8445 222.9137)" class="st0 st3 st4"> </text>
	<text transform="matrix(1 0 0 1 150.239 222.9137)" class="st0 st3 st4">H</text>
	<text transform="matrix(1 0 0 1 160.3718 222.9137)" class="st0 st3 st4">E</text>
	<text transform="matrix(1 0 0 1 169.0066 222.9137)" class="st0 st3 st4">R</text>
	<text transform="matrix(1 0 0 1 178.3416 222.9137)" class="st0 st3 st4">E</text>
	<g id="g64">
		<g id="g70" transform="translate(327.7662,366.6979)">
			<path id="path72" class="st0" d="M-262.4-278.4c0,0-0.1,0-0.1,0C-262.5-278.4-262.5-278.4-262.4-278.4 M-261.7-278.5
				c0,0-0.1,0-0.2,0C-261.8-278.5-261.7-278.5-261.7-278.5 M-263.2-278.2C-263.3-278.2-263.3-278.2-263.2-278.2
				C-263.3-278.2-263.3-278.2-263.2-278.2 M-209.6-258.5L-209.6-258.5L-209.6-258.5L-209.6-258.5L-209.6-258.5z M-173.1-255.9
				l-15.4,6.2l-18.5,7.5c0,0,0,0,0,0l-0.1,0c-0.1,0-0.1,0-0.2,0.1c-0.1,0.1-0.3,0.1-0.4,0.2c-0.1,0-0.2,0-0.2,0.1
				c-0.1,0-0.2,0.1-0.4,0.1c-0.1,0-0.2,0-0.3,0.1c-0.1,0-0.2,0-0.4,0.1c-0.1,0-0.2,0-0.3,0c-0.1,0-0.2,0-0.3,0l0,0
				c-0.2,0-0.4,0-0.6,0c0,0-0.1,0-0.1,0c-0.2,0-0.3,0-0.5-0.1c-0.1,0-0.1,0-0.2,0c0,0-0.1,0-0.1,0c-0.1,0-0.2-0.1-0.4-0.1
				c-0.1,0-0.1,0-0.2-0.1c-0.2,0-0.3-0.1-0.4-0.1c-0.1,0-0.1,0-0.2-0.1l-51.1-20.7c-3.5-1.4-5.3-5.3-4-8.8c1.4-3.6,5.4-5.3,8.9-3.9
				l45.4,18.4l0.8,0.3c1.7,0.7,3.5,0.7,5.2,0l41.1-16.6l8.6-3.5c1-0.4,0.9-1.6,0.1-2l-47.4-21.4c-3.1-1.4-6.7-1.4-9.8,0l-49.5,22.3
				c-2.5,0.9-4.5,2.8-5.5,5.3c-1.9,4.8,0.4,10.2,5.1,12.1l51.1,20.7c0.6,0.3,1.2,0.5,1.9,0.6c0,0,0.1,0,0.1,0c0.2,0,0.4,0.1,0.7,0.1
				c0.1,0,0.1,0,0.2,0c0.3,0,0.5,0,0.8,0l0,0l0,0c1.2,0,2.4-0.2,3.5-0.7l46.8-18.9c2.3-0.9,2.7-1.8,2.7-3.8L-173.1-255.9z"/>
		</g>
		<g id="g74" transform="translate(367.4274,341.5749)">
			<path id="path76" class="st0" d="M-249.2-219.8c-0.7,0-1.4-0.1-2.2-0.3c0,0-0.1,0-0.1,0l-49.3-19.9c-0.4-0.2-0.6-0.6-0.4-1
				c0.2-0.4,0.6-0.6,1-0.4l49.2,19.9c1.1,0.3,2.2,0.3,3.4,0l47.5-19.2c0.4-0.2,0.9,0,1,0.4c0.2,0.4,0,0.9-0.4,1l-47.6,19.2
				c0,0-0.1,0-0.1,0C-247.8-219.9-248.5-219.8-249.2-219.8"/>
		</g>
		<g id="g78" transform="translate(367.4274,345.6769)">
			<path id="path80" class="st0" d="M-249.2-229.3c-0.7,0-1.4-0.1-2.2-0.3c0,0-0.1,0-0.1,0l-49.3-19.9c-0.4-0.2-0.6-0.6-0.4-1
				c0.2-0.4,0.6-0.6,1-0.4l49.2,19.9c1.1,0.3,2.2,0.3,3.4,0l47.5-19.2c0.4-0.2,0.9,0,1,0.4c0.2,0.4,0,0.9-0.4,1l-47.6,19.2
				c0,0-0.1,0-0.1,0C-247.8-229.4-248.5-229.3-249.2-229.3"/>
		</g>
		<g id="g82" transform="translate(364.5465,402.007)">
			<path id="path84" class="st0" d="M-250.2-360.8l-38.8,17.7c-1,0.4-1,1.8,0,2.3l38.8,17.7c1.2,0.5,2.5,0.5,3.7,0l38.8-17.7
				c1-0.5,1-1.8,0-2.3l-38.8-17.7C-247.7-361.3-249-361.3-250.2-360.8"/>
		</g>
		<g id="g86" transform="translate(365.774,358.0226)">
			<path id="path88" class="st0" d="M-249.8-258.1c-17.1,0-29.9-5.8-29.9-13.5v-20.1l27.3,12.5c0.9,0.4,1.8,0.6,2.8,0.6
				c1,0,1.9-0.2,2.8-0.6l26.9-12.3v19.9C-219.9-263.9-232.7-258.1-249.8-258.1"/>
		</g>
		<g id="g90" transform="translate(368.7194,372.4001)">
			<path id="path92" class="st0" d="M-248.8-291.7c-1.2,0.5-2.4,0.8-3.7,0.8c-1.3,0-2.5-0.3-3.7-0.8l-24.2-11.1v16.7
				c0,6.2,12.4,11.3,27.7,11.3s27.7-5.1,27.7-11.3v-16.5L-248.8-291.7z"/>
		</g>
		<g id="g94" transform="translate(325.0553,408.1457)">
			<path id="path96" class="st0" d="M-263.3-375.1c-3.3,2.8-4,7.2-4,7.2s4.6,0,7.8-2.7c3.3-2.8,4-7.2,4-7.2
				S-260.1-377.8-263.3-375.1"/>
		</g>
		<g id="g98" transform="translate(338.6998,328.0358)">
			<path id="path100" class="st0" d="M-258.8-188.2c2.6,3.6,2.6,7.7,2.6,7.7c0,0.1-5.6-1.8-8.1-5.7c-2.4-3.9-1-7.8-1.1-7.8
				C-265.3-193.9-261.4-191.7-258.8-188.2"/>
		</g>
		<g id="g102" transform="translate(335.361,319.1027)">
			<path id="path104" class="st0" d="M-259.9-167.3c5-0.7,7.1-4.4,7.1-4.4c-0.1,0-5.4-1.7-10-1.4c-4.7,0.4-7.5,3.2-7.5,3.2
				C-270.5-169.8-265-166.6-259.9-167.3"/>
		</g>
		<g id="g106" transform="translate(331.3951,331.5778)">
			<path id="path108" class="st0" d="M-261.2-196.4c1.7,3.9,0.9,7.9,0.9,7.9c0,0.1-4.9-2.6-6.4-6.8c-1.5-4.2,0.5-7.7,0.5-7.7
				C-266.3-203-263-200.3-261.2-196.4"/>
		</g>
		<g id="g110" transform="translate(326.4977,323.5178)">
			<path id="path112" class="st0" d="M-262.9-177.6c4.9,0.2,7.5-3.1,7.5-3c-0.1,0-4.7-2.6-9.1-3c-4.5-0.4-7.8,1.8-7.8,1.8
				C-272.4-181.8-267.8-177.8-262.9-177.6"/>
		</g>
		<g id="g114" transform="translate(325.149,336.2321)">
			<path id="path116" class="st0" d="M-263.3-207.3c0.9,4.1-0.6,7.8-0.7,7.8c0,0.1-4.2-3.4-4.9-7.7c-0.7-4.3,1.9-7.4,1.9-7.4
				C-267-214.6-264.2-211.3-263.3-207.3"/>
		</g>
		<g id="g118" transform="translate(318.9391,329.2697)">
			<path id="path120" class="st0" d="M-265.4-191c4.6,1,7.7-1.7,7.7-1.7c0,0-3.9-3.3-8.2-4.4c-4.3-1.2-7.8,0.4-7.9,0.4
				C-273.8-196.7-270.1-192.1-265.4-191"/>
		</g>
		<g id="g122" transform="translate(319.9996,341.8146)">
			<path id="path124" class="st0" d="M-265-220.3c0.1,4.1-2,7.4-2.1,7.4c0,0.1-3.4-4-3.3-8.3c0.1-4.3,3.2-6.8,3.1-6.8
				C-267.3-228-265.2-224.4-265-220.3"/>
		</g>
		<g id="g126" transform="translate(312.7281,336.134)">
			<path id="path128" class="st0" d="M-267.5-207.1c4.3,1.8,7.8-0.3,7.7-0.3c-0.1,0-3.2-3.8-7.1-5.7c-3.9-1.9-7.7-1-7.7-0.9
				C-274.6-214-271.8-208.9-267.5-207.1"/>
		</g>
		<g id="g130" transform="translate(315.985,348.1423)">
			<path id="path132" class="st0" d="M-266.4-235.1c-0.6,4-3.3,6.8-3.3,6.8c0,0.1-2.6-4.5-1.8-8.7c0.8-4.2,4.2-6.1,4.2-6.1
				C-267.3-243-265.8-239.1-266.4-235.1"/>
		</g>
		<g id="g134" transform="translate(307.9098,343.8864)">
			<path id="path136" class="st0" d="M-269.1-225.2c3.9,2.5,7.6,1.1,7.6,1.1c0,0-2.5-4.3-5.9-6.8c-3.5-2.5-7.4-2.3-7.4-2.3
				C-274.9-233.2-273-227.6-269.1-225.2"/>
		</g>
		<g id="g138" transform="translate(313.1422,355.0295)">
			<path id="path140" class="st0" d="M-267.3-251.2c-1.2,3.8-4.4,6.1-4.4,6.1c0,0.1-1.8-4.8-0.3-8.8c1.5-3.9,5.2-5.2,5.2-5.2
				C-266.9-259.1-266.1-254.9-267.3-251.2"/>
		</g>
		<g id="g142" transform="translate(304.524,352.301)">
			<path id="path144" class="st0" d="M-270.2-244.8c3.4,3.1,7.2,2.4,7.2,2.4c0,0-1.7-4.6-4.7-7.7c-3-3.1-6.8-3.6-6.9-3.6
				C-274.5-253.7-273.6-247.9-270.2-244.8"/>
		</g>
		<g id="g146" transform="translate(311.5104,362.2912)">
			<path id="path148" class="st0" d="M-267.9-268.1c-1.9,3.5-5.3,5.2-5.3,5.2c0,0-1-5.1,1.2-8.7c2.1-3.6,5.9-4.2,5.9-4.2
				C-266.1-275.8-266-271.6-267.9-268.1"/>
		</g>
		<g id="g150" transform="translate(302.6178,361.1506)">
			<path id="path152" class="st0" d="M-270.8-265.4c2.8,3.7,6.7,3.6,6.7,3.6c0,0-0.9-4.8-3.3-8.4c-2.5-3.6-6.1-4.7-6.1-4.7
				C-273.6-275-273.6-269.1-270.8-265.4"/>
		</g>
		<g id="g154" transform="translate(311.1266,369.7404)">
			<path id="path156" class="st0" d="M-268-285.5c-2.4,3.2-6.1,4.2-6.1,4.2c0,0-0.1-5.2,2.6-8.4c2.7-3.2,6.5-3.1,6.5-3.1
				C-264.9-292.8-265.6-288.6-268-285.5"/>
		</g>
		<g id="g158" transform="translate(302.233,370.2101)">
			<path id="path160" class="st0" d="M-271-286.6c2.1,4.1,5.9,4.8,5.9,4.8c0,0,0-4.9-1.8-8.9c-1.8-4-5.1-5.8-5.2-5.8
				C-272-296.5-273.1-290.7-271-286.6"/>
		</g>
		<g id="g162" transform="translate(312.0309,377.1921)">
			<path id="path164" class="st0" d="M-267.7-302.9c-2.9,2.7-6.6,3.1-6.7,3.1c0,0,0.8-5.1,4-7.9c3.2-2.7,7-2,7-2
				C-263.4-309.6-264.8-305.6-267.7-302.9"/>
		</g>
		<g id="g166" transform="translate(303.4117,379.2507)">
			<path id="path168" class="st0" d="M-270.6-307.7c1.3,4.5,5,5.8,5,5.8c0,0,0.8-4.9-0.2-9.2c-1-4.3-4-6.7-4-6.7
				C-269.8-317.7-271.9-312.2-270.6-307.7"/>
		</g>
		<g id="g170" transform="translate(314.2604,384.4567)">
			<path id="path172" class="st0" d="M-266.9-319.8c-3.4,2.2-7.1,1.9-7.1,1.9c0,0,1.7-5,5.4-7.1c3.7-2.2,7.2-0.7,7.2-0.8
				C-261.4-325.8-263.6-322-266.9-319.8"/>
		</g>
		<g id="g174" transform="translate(306.2008,388.0441)">
			<path id="path176" class="st0" d="M-269.6-328.2c0.5,4.7,3.8,6.7,3.8,6.7c0,0,1.7-4.7,1.5-9.2c-0.2-4.5-2.6-7.4-2.6-7.4
				C-267-338.1-270.1-332.9-269.6-328.2"/>
		</g>
		<g id="g178" transform="translate(317.8541,391.3474)">
			<path id="path180" class="st0" d="M-265.7-335.9c-3.7,1.6-7.3,0.6-7.3,0.6c-0.1,0,2.6-4.7,6.8-6.2c4.1-1.5,7.3,0.5,7.3,0.5
				C-259.1-341-262.1-337.5-265.7-335.9"/>
		</g>
		<g id="g182" transform="translate(310.6412,396.3615)">
			<path id="path184" class="st0" d="M-268.2-347.6c-0.5,4.8,2.4,7.4,2.4,7.4c0,0,2.6-4.4,3.4-9c0.8-4.6-1-7.9-1-7.9
				C-263.5-357.1-267.7-352.4-268.2-347.6"/>
		</g>
		<g id="g186" transform="translate(322.8502,397.6745)">
			<path id="path188" class="st0" d="M-264.1-350.7c-4.1,1-7.4-0.6-7.4-0.6c-0.1,0,3.6-4.3,8.1-5.1c4.4-0.9,7.2,1.7,7.2,1.7
				C-256.3-354.7-260.1-351.7-264.1-350.7"/>
		</g>
		<g id="g190" transform="translate(316.7799,403.9728)">
			<path id="path192" class="st0" d="M-266.1-365.4c-1.5,4.8,0.8,7.9,0.8,7.9c0,0,3.5-4,5.3-8.5c1.8-4.5,0.8-8.2,0.8-8.2
				C-259.3-374.2-264.6-370.2-266.1-365.4"/>
		</g>
		<g id="g194" transform="translate(352.6217,320.8498)">
			<path id="path196" class="st0" d="M-254.2-171.4l-0.1-0.9c-7.3,0.4-14.6-0.7-21.5-3.2c-6.8-2.5-13-6.2-18.5-11.1
				c-11.4-10.1-18.5-24.2-19.9-39.7c-1.2-12.7,0.1-23.9,3.8-33.3c4-10.1,10.6-17.9,19.8-23.1l-0.4-0.8c-9.3,5.3-16.1,13.3-20.1,23.6
				c-3.7,9.5-5,20.9-3.8,33.7c1.5,15.7,8.6,30,20.2,40.3c5.6,4.9,11.9,8.7,18.8,11.2C-269-172.1-261.6-171-254.2-171.4"/>
		</g>
		<g id="g198" transform="translate(406.8043,408.1457)">
			<path id="path200" class="st0" d="M-236.1-375.1c3.3,2.8,4,7.2,4,7.2s-4.6,0-7.8-2.7c-3.3-2.8-4-7.2-4-7.2
				S-239.4-377.8-236.1-375.1"/>
		</g>
		<g id="g202" transform="translate(393.1598,328.0358)">
			<path id="path204" class="st0" d="M-240.6-188.2c-2.6,3.6-2.6,7.7-2.6,7.7c0,0.1,5.6-1.8,8.1-5.7c2.4-3.9,1-7.8,1.1-7.8
				C-234.1-193.9-238.1-191.7-240.6-188.2"/>
		</g>
		<g id="g206" transform="translate(396.4987,319.1027)">
			<path id="path208" class="st0" d="M-239.5-167.3c-5-0.7-7.1-4.4-7.1-4.4c0.1,0,5.4-1.7,10-1.4c4.7,0.4,7.6,3.2,7.6,3.2
				C-229-169.8-234.4-166.6-239.5-167.3"/>
		</g>
		<g id="g210" transform="translate(400.4645,331.5778)">
			<path id="path212" class="st0" d="M-238.2-196.4c-1.7,3.9-0.9,7.9-0.9,7.9c0,0.1,4.9-2.6,6.4-6.8c1.5-4.2-0.5-7.7-0.5-7.7
				C-233.1-203-236.5-200.3-238.2-196.4"/>
		</g>
		<g id="g214" transform="translate(405.3619,323.5178)">
			<path id="path216" class="st0" d="M-236.6-177.6c-4.9,0.2-7.5-3.1-7.5-3c0.1,0,4.7-2.6,9.2-3c4.5-0.4,7.8,1.8,7.8,1.8
				C-227-181.8-231.7-177.8-236.6-177.6"/>
		</g>
		<g id="g218" transform="translate(406.7106,336.2321)">
			<path id="path220" class="st0" d="M-236.1-207.3c-0.9,4.1,0.6,7.8,0.7,7.8c0,0.1,4.2-3.4,4.9-7.7c0.7-4.3-1.9-7.4-1.9-7.4
				C-232.5-214.6-235.2-211.3-236.1-207.3"/>
		</g>
		<g id="g222" transform="translate(412.9205,329.2697)">
			<path id="path224" class="st0" d="M-234.1-191c-4.6,1-7.7-1.7-7.7-1.7c0.1,0,3.9-3.3,8.2-4.4c4.3-1.2,7.8,0.4,7.8,0.4
				C-225.7-196.7-229.4-192.1-234.1-191"/>
		</g>
		<g id="g226" transform="translate(411.859,341.8146)">
			<path id="path228" class="st0" d="M-234.4-220.3c-0.1,4.1,2,7.4,2.1,7.4c0,0.1,3.4-4,3.3-8.3c-0.1-4.3-3.2-6.8-3.1-6.8
				C-232.2-228-234.3-224.4-234.4-220.3"/>
		</g>
		<g id="g230" transform="translate(419.1305,336.134)">
			<path id="path232" class="st0" d="M-232-207.1c-4.3,1.8-7.8-0.3-7.7-0.3c0.1,0,3.2-3.8,7.1-5.7c3.9-1.9,7.7-1,7.7-0.9
				C-224.8-214-227.7-208.9-232-207.1"/>
		</g>
		<g id="g234" transform="translate(415.8746,348.1423)">
			<path id="path236" class="st0" d="M-233.1-235.1c0.6,4,3.3,6.8,3.3,6.8c0,0.1,2.6-4.5,1.8-8.7c-0.8-4.2-4.2-6.1-4.2-6.1
				C-232.2-243-233.6-239.1-233.1-235.1"/>
		</g>
		<g id="g238" transform="translate(423.9498,343.8864)">
			<path id="path240" class="st0" d="M-230.4-225.2c-3.9,2.5-7.6,1.1-7.6,1.1c0,0,2.4-4.3,5.9-6.8c3.5-2.5,7.4-2.3,7.4-2.3
				C-224.6-233.2-226.5-227.6-230.4-225.2"/>
		</g>
		<g id="g242" transform="translate(418.7174,355.0295)">
			<path id="path244" class="st0" d="M-232.1-251.2c1.2,3.8,4.4,6.1,4.4,6.1c0,0.1,1.8-4.8,0.3-8.8c-1.5-3.9-5.2-5.2-5.1-5.2
				C-232.6-259.1-233.3-254.9-232.1-251.2"/>
		</g>
		<g id="g246" transform="translate(427.3346,352.301)">
			<path id="path248" class="st0" d="M-229.3-244.8c-3.4,3.1-7.2,2.4-7.2,2.4c0,0,1.7-4.6,4.7-7.7c3-3.1,6.8-3.6,6.8-3.6
				C-224.9-253.7-225.9-247.9-229.3-244.8"/>
		</g>
		<g id="g250" transform="translate(420.3492,362.2912)">
			<path id="path252" class="st0" d="M-231.6-268.1c1.9,3.5,5.3,5.2,5.3,5.2c0,0,1-5.1-1.2-8.7c-2.1-3.6-5.9-4.2-5.9-4.2
				C-233.4-275.8-233.4-271.6-231.6-268.1"/>
		</g>
		<g id="g254" transform="translate(429.2418,361.1506)">
			<path id="path256" class="st0" d="M-228.6-265.4c-2.8,3.7-6.7,3.6-6.7,3.6c0,0,0.9-4.8,3.3-8.4c2.4-3.6,6.1-4.7,6.1-4.7
				C-225.9-275-225.8-269.1-228.6-265.4"/>
		</g>
		<g id="g258" transform="translate(420.733,369.7404)">
			<path id="path260" class="st0" d="M-231.5-285.5c2.4,3.2,6.1,4.2,6.1,4.2c0,0,0.1-5.2-2.6-8.4c-2.7-3.2-6.5-3.1-6.5-3.1
				C-234.5-292.8-233.8-288.6-231.5-285.5"/>
		</g>
		<g id="g262" transform="translate(429.6266,370.2101)">
			<path id="path264" class="st0" d="M-228.5-286.6c-2.1,4.1-6,4.8-5.9,4.8c0,0,0-4.9,1.8-8.9c1.8-4,5.1-5.8,5.2-5.8
				C-227.4-296.5-226.4-290.7-228.5-286.6"/>
		</g>
		<g id="g266" transform="translate(419.8287,377.1921)">
			<path id="path268" class="st0" d="M-231.8-302.9c2.9,2.7,6.7,3.1,6.7,3.1c0,0-0.8-5.1-4.1-7.9c-3.2-2.7-7-2-7-2
				C-236.1-309.6-234.6-305.6-231.8-302.9"/>
		</g>
		<g id="g270" transform="translate(428.4469,379.2507)">
			<path id="path272" class="st0" d="M-228.9-307.7c-1.3,4.5-5,5.8-5,5.8c0,0-0.8-4.9,0.2-9.2c1-4.3,4-6.7,4-6.7
				C-229.6-317.7-227.5-312.2-228.9-307.7"/>
		</g>
		<g id="g274" transform="translate(417.5992,384.4567)">
			<path id="path276" class="st0" d="M-232.5-319.8c3.4,2.2,7.1,1.9,7.1,1.9c0.1,0-1.7-5-5.4-7.1c-3.7-2.2-7.2-0.7-7.2-0.8
				C-238-325.8-235.8-322-232.5-319.8"/>
		</g>
		<g id="g278" transform="translate(425.6588,388.0441)">
			<path id="path280" class="st0" d="M-229.8-328.2c-0.5,4.7-3.8,6.7-3.8,6.7c0,0-1.7-4.7-1.5-9.2c0.2-4.5,2.6-7.4,2.6-7.4
				C-232.5-338.1-229.3-332.9-229.8-328.2"/>
		</g>
		<g id="g282" transform="translate(414.0055,391.3474)">
			<path id="path284" class="st0" d="M-233.7-335.9c3.7,1.6,7.3,0.6,7.3,0.6c0.1,0-2.6-4.7-6.8-6.2c-4.1-1.5-7.3,0.5-7.3,0.5
				C-240.4-341-237.4-337.5-233.7-335.9"/>
		</g>
		<g id="g286" transform="translate(421.2174,396.3615)">
			<path id="path288" class="st0" d="M-231.3-347.6c0.5,4.8-2.4,7.4-2.4,7.4c0,0-2.6-4.4-3.4-9c-0.8-4.6,1-7.9,1-7.9
				C-236-357.1-231.7-352.4-231.3-347.6"/>
		</g>
		<g id="g290" transform="translate(409.0094,397.6745)">
			<path id="path292" class="st0" d="M-235.4-350.7c4.1,1,7.4-0.6,7.4-0.6c0.1,0-3.6-4.3-8.1-5.1c-4.4-0.9-7.2,1.7-7.2,1.7
				C-243.2-354.7-239.4-351.7-235.4-350.7"/>
		</g>
		<g id="g294" transform="translate(415.0797,403.9728)">
			<path id="path296" class="st0" d="M-233.3-365.4c1.5,4.8-0.8,7.9-0.8,7.9c0,0-3.5-4-5.3-8.5c-1.8-4.5-0.8-8.2-0.8-8.2
				C-240.2-374.2-234.8-370.2-233.3-365.4"/>
		</g>
		<g id="g298" transform="translate(379.2379,320.8498)">
			<path id="path300" class="st0" d="M-245.3-171.4l0.1-0.9c7.3,0.4,14.6-0.7,21.5-3.2c6.8-2.5,13-6.2,18.5-11.1
				c11.4-10.1,18.5-24.2,19.9-39.7c1.2-12.7-0.1-23.9-3.8-33.3c-3.9-10.1-10.6-17.9-19.8-23.1l0.4-0.8c9.3,5.3,16.1,13.3,20.1,23.6
				c3.7,9.5,5,20.9,3.8,33.7c-1.5,15.7-8.6,30-20.2,40.3c-5.6,4.9-11.9,8.7-18.8,11.2C-230.5-172.1-237.8-171-245.3-171.4"/>
		</g>
		<g id="g302" transform="translate(366.649,432.9382)">
			<path id="path304" class="st0" d="M-249.5-432.9l3.8,7.6l8.4,1.2l-6.1,5.9l1.4,8.4l-7.5-4l-7.5,4l1.4-8.4l-6.1-5.9l8.4-1.2
				L-249.5-432.9z"/>
		</g>
		<g id="g306" transform="translate(344.9039,422.2892)">
			<path id="path308" class="st0" d="M-256.7-408.1l2.8,5.6l6.2,0.9l-4.5,4.4l1.1,6.2l-5.6-2.9l-5.6,2.9l1.1-6.2l-4.5-4.4l6.2-0.9
				L-256.7-408.1z"/>
		</g>
		<g id="g310" transform="translate(388.3932,422.2892)">
			<path id="path312" class="st0" d="M-242.2-408.1l2.8,5.6l6.2,0.9l-4.5,4.4l1.1,6.2l-5.6-2.9l-5.6,2.9l1.1-6.2l-4.5-4.4l6.2-0.9
				L-242.2-408.1z"/>
		</g>
	</g>
	<text transform="matrix(1 0 0 1 100.6779 147.0934)" class="st0 st3 st5">E</text>
	<text transform="matrix(1 0 0 1 107.3683 147.0934)" class="st0 st3 st5">S</text>
	<text transform="matrix(1 0 0 1 113.5597 147.0934)" class="st0 st3 st5">T</text>
	<text transform="matrix(1 0 0 1 119.5714 147.0934)" class="st0 st3 st5">D</text>
	<text transform="matrix(1 0 0 1 127.63 147.0934)" class="st0 st3 st5">.</text>
	<text transform="matrix(1 0 0 1 103.9142 156.6559)" class="st0 st3 st6">2</text>
	<text transform="matrix(1 0 0 1 109.2286 156.6559)" class="st0 st3 st6">0</text>
	<text transform="matrix(1 0 0 1 115.3575 156.6559)" class="st0 st3 st6">2</text>
	<text transform="matrix(1 0 0 1 120.672 156.6559)" class="st0 st3 st6">1</text>
</g>
</svg>
